<svg width="831" height="71" viewBox="0 0 831 71" fill="none" xmlns="http://www.w3.org/2000/svg">
<path d="M9 60.8125L56.277 13.5355C58.2296 11.5829 61.3954 11.5829 63.348 13.5355L107.089 57.277C109.042 59.2296 112.208 59.2296 114.161 57.277L157.902 13.5355C159.855 11.5829 163.02 11.5829 164.973 13.5355L208.714 57.277C210.667 59.2296 213.833 59.2296 215.786 57.277L259.527 13.5355C261.48 11.5829 264.645 11.5829 266.598 13.5355L310.339 57.277C312.292 59.2296 315.458 59.2296 317.411 57.277L361.152 13.5355C363.105 11.5829 366.27 11.5829 368.223 13.5355L411.964 57.277C413.917 59.2296 417.083 59.2296 419.036 57.277L462.777 13.5355C464.73 11.5829 467.895 11.5829 469.848 13.5355L513.589 57.277C515.542 59.2296 518.708 59.2296 520.661 57.277L564.402 13.5355C566.355 11.5829 569.52 11.5829 571.473 13.5355L615.214 57.277C617.167 59.2296 620.333 59.2296 622.286 57.277L666.027 13.5355C667.98 11.5829 671.145 11.5829 673.098 13.5355L716.839 57.277C718.792 59.2296 721.958 59.2296 723.911 57.277L767.652 13.5355C769.605 11.5829 772.77 11.5829 774.723 13.5355L822 60.8125" stroke="#0A0C35" stroke-opacity="0.06" stroke-width="24"/>
</svg>
