<svg width="558" height="50" viewBox="0 0 558 50" fill="none" xmlns="http://www.w3.org/2000/svg">
<circle cx="387" cy="6" r="6" fill="#0A0C35" fill-opacity="0.06"/>
<circle cx="387" cy="31" r="6" fill="#0A0C35" fill-opacity="0.06"/>
<circle cx="514" cy="6" r="6" fill="#0A0C35" fill-opacity="0.06"/>
<circle cx="514" cy="31" r="6" fill="#0A0C35" fill-opacity="0.06"/>
<circle cx="539" cy="6" r="6" fill="#0A0C35" fill-opacity="0.06"/>
<circle cx="539" cy="31" r="6" fill="#0A0C35" fill-opacity="0.06"/>
<circle cx="412" cy="6" r="6" fill="#0A0C35" fill-opacity="0.06"/>
<circle cx="412" cy="31" r="6" fill="#0A0C35" fill-opacity="0.06"/>
<circle cx="438" cy="6" r="6" fill="#0A0C35" fill-opacity="0.06"/>
<circle cx="438" cy="31" r="6" fill="#0A0C35" fill-opacity="0.06"/>
<circle cx="463" cy="6" r="6" fill="#0A0C35" fill-opacity="0.06"/>
<circle cx="463" cy="31" r="6" fill="#0A0C35" fill-opacity="0.06"/>
<circle cx="488" cy="6" r="6" fill="#0A0C35" fill-opacity="0.06"/>
<circle cx="488" cy="31" r="6" fill="#0A0C35" fill-opacity="0.06"/>
<circle cx="133" cy="6" r="6" fill="#0A0C35" fill-opacity="0.06"/>
<circle cx="133" cy="31" r="6" fill="#0A0C35" fill-opacity="0.06"/>
<circle cx="260" cy="6" r="6" fill="#0A0C35" fill-opacity="0.06"/>
<circle cx="260" cy="31" r="6" fill="#0A0C35" fill-opacity="0.06"/>
<circle cx="285" cy="6" r="6" fill="#0A0C35" fill-opacity="0.06"/>
<circle cx="285" cy="31" r="6" fill="#0A0C35" fill-opacity="0.06"/>
<circle cx="361" cy="6" r="6" fill="#0A0C35" fill-opacity="0.06"/>
<circle cx="361" cy="31" r="6" fill="#0A0C35" fill-opacity="0.06"/>
<circle cx="158" cy="6" r="6" fill="#0A0C35" fill-opacity="0.06"/>
<circle cx="158" cy="31" r="6" fill="#0A0C35" fill-opacity="0.06"/>
<circle cx="184" cy="6" r="6" fill="#0A0C35" fill-opacity="0.06"/>
<circle cx="184" cy="31" r="6" fill="#0A0C35" fill-opacity="0.06"/>
<circle cx="209" cy="6" r="6" fill="#0A0C35" fill-opacity="0.06"/>
<circle cx="209" cy="31" r="6" fill="#0A0C35" fill-opacity="0.06"/>
<circle cx="234" cy="6" r="6" fill="#0A0C35" fill-opacity="0.06"/>
<circle cx="234" cy="31" r="6" fill="#0A0C35" fill-opacity="0.06"/>
<circle cx="310" cy="6" r="6" fill="#0A0C35" fill-opacity="0.06"/>
<circle cx="310" cy="31" r="6" fill="#0A0C35" fill-opacity="0.06"/>
<circle cx="336" cy="6" r="6" fill="#0A0C35" fill-opacity="0.06"/>
<circle cx="336" cy="31" r="6" fill="#0A0C35" fill-opacity="0.06"/>
<circle cx="32" cy="6" r="6" fill="#0A0C35" fill-opacity="0.06"/>
<circle cx="32" cy="31" r="6" fill="#0A0C35" fill-opacity="0.06"/>
<circle cx="57" cy="6" r="6" fill="#0A0C35" fill-opacity="0.06"/>
<circle cx="57" cy="31" r="6" fill="#0A0C35" fill-opacity="0.06"/>
<circle cx="6" cy="6" r="6" fill="#0A0C35" fill-opacity="0.06"/>
<circle cx="6" cy="31" r="6" fill="#0A0C35" fill-opacity="0.06"/>
<circle cx="82" cy="6" r="6" fill="#0A0C35" fill-opacity="0.06"/>
<circle cx="82" cy="31" r="6" fill="#0A0C35" fill-opacity="0.06"/>
<circle cx="108" cy="6" r="6" fill="#0A0C35" fill-opacity="0.06"/>
<circle cx="108" cy="31" r="6" fill="#0A0C35" fill-opacity="0.06"/>
</svg>
