<svg width="1207" height="40" viewBox="0 0 1207 40" fill="none" xmlns="http://www.w3.org/2000/svg">
<circle cx="5.5" cy="16.0103" r="5.5" fill="#0A0C35" fill-opacity="0.06"/>
<circle cx="26.5205" cy="16.0103" r="5.5" fill="#0A0C35" fill-opacity="0.06"/>
<circle cx="16.0103" cy="5.5" r="5.5" transform="rotate(90 16.0103 5.5)" fill="#0A0C35" fill-opacity="0.06"/>
<circle cx="16.0103" cy="26.5205" r="5.5" transform="rotate(90 16.0103 26.5205)" fill="#0A0C35" fill-opacity="0.06"/>
<circle cx="49.0103" cy="16.0103" r="5.5" fill="#0A0C35" fill-opacity="0.06"/>
<circle cx="70.0308" cy="16.0103" r="5.5" fill="#0A0C35" fill-opacity="0.06"/>
<circle cx="59.5205" cy="5.5" r="5.5" transform="rotate(90 59.5205 5.5)" fill="#0A0C35" fill-opacity="0.06"/>
<circle cx="59.5205" cy="26.5205" r="5.5" transform="rotate(90 59.5205 26.5205)" fill="#0A0C35" fill-opacity="0.06"/>
<circle cx="92.5205" cy="16.0103" r="5.5" fill="#0A0C35" fill-opacity="0.06"/>
<circle cx="113.541" cy="16.0103" r="5.5" fill="#0A0C35" fill-opacity="0.06"/>
<circle cx="103.031" cy="5.5" r="5.5" transform="rotate(90 103.031 5.5)" fill="#0A0C35" fill-opacity="0.06"/>
<circle cx="103.031" cy="26.5205" r="5.5" transform="rotate(90 103.031 26.5205)" fill="#0A0C35" fill-opacity="0.06"/>
<circle cx="136.031" cy="16.0103" r="5.5" fill="#0A0C35" fill-opacity="0.06"/>
<circle cx="157.051" cy="16.0103" r="5.5" fill="#0A0C35" fill-opacity="0.06"/>
<circle cx="146.541" cy="5.5" r="5.5" transform="rotate(90 146.541 5.5)" fill="#0A0C35" fill-opacity="0.06"/>
<circle cx="146.541" cy="26.5205" r="5.5" transform="rotate(90 146.541 26.5205)" fill="#0A0C35" fill-opacity="0.06"/>
<circle cx="179.541" cy="16.0103" r="5.5" fill="#0A0C35" fill-opacity="0.06"/>
<circle cx="200.562" cy="16.0103" r="5.5" fill="#0A0C35" fill-opacity="0.06"/>
<circle cx="190.051" cy="5.5" r="5.5" transform="rotate(90 190.051 5.5)" fill="#0A0C35" fill-opacity="0.06"/>
<circle cx="190.051" cy="26.5205" r="5.5" transform="rotate(90 190.051 26.5205)" fill="#0A0C35" fill-opacity="0.06"/>
<circle cx="223.051" cy="16.0103" r="5.5" fill="#0A0C35" fill-opacity="0.06"/>
<circle cx="244.072" cy="16.0103" r="5.5" fill="#0A0C35" fill-opacity="0.06"/>
<circle cx="233.562" cy="5.5" r="5.5" transform="rotate(90 233.562 5.5)" fill="#0A0C35" fill-opacity="0.06"/>
<circle cx="233.562" cy="26.5205" r="5.5" transform="rotate(90 233.562 26.5205)" fill="#0A0C35" fill-opacity="0.06"/>
<circle cx="266.562" cy="16.0103" r="5.5" fill="#0A0C35" fill-opacity="0.06"/>
<circle cx="287.582" cy="16.0103" r="5.5" fill="#0A0C35" fill-opacity="0.06"/>
<circle cx="277.072" cy="5.5" r="5.5" transform="rotate(90 277.072 5.5)" fill="#0A0C35" fill-opacity="0.06"/>
<circle cx="277.072" cy="26.5205" r="5.5" transform="rotate(90 277.072 26.5205)" fill="#0A0C35" fill-opacity="0.06"/>
<circle cx="310.072" cy="16.0103" r="5.5" fill="#0A0C35" fill-opacity="0.06"/>
<circle cx="331.092" cy="16.0103" r="5.5" fill="#0A0C35" fill-opacity="0.06"/>
<circle cx="320.582" cy="5.5" r="5.5" transform="rotate(90 320.582 5.5)" fill="#0A0C35" fill-opacity="0.06"/>
<circle cx="320.582" cy="26.5205" r="5.5" transform="rotate(90 320.582 26.5205)" fill="#0A0C35" fill-opacity="0.06"/>
<circle cx="353.582" cy="16.0103" r="5.5" fill="#0A0C35" fill-opacity="0.06"/>
<circle cx="374.603" cy="16.0103" r="5.5" fill="#0A0C35" fill-opacity="0.06"/>
<circle cx="364.092" cy="5.5" r="5.5" transform="rotate(90 364.092 5.5)" fill="#0A0C35" fill-opacity="0.06"/>
<circle cx="364.092" cy="26.5205" r="5.5" transform="rotate(90 364.092 26.5205)" fill="#0A0C35" fill-opacity="0.06"/>
<circle cx="397.092" cy="16.0103" r="5.5" fill="#0A0C35" fill-opacity="0.06"/>
<circle cx="418.113" cy="16.0103" r="5.5" fill="#0A0C35" fill-opacity="0.06"/>
<circle cx="407.603" cy="5.5" r="5.5" transform="rotate(90 407.603 5.5)" fill="#0A0C35" fill-opacity="0.06"/>
<circle cx="407.603" cy="26.5205" r="5.5" transform="rotate(90 407.603 26.5205)" fill="#0A0C35" fill-opacity="0.06"/>
<circle cx="440.603" cy="16.0103" r="5.5" fill="#0A0C35" fill-opacity="0.06"/>
<circle cx="461.623" cy="16.0103" r="5.5" fill="#0A0C35" fill-opacity="0.06"/>
<circle cx="451.113" cy="5.5" r="5.5" transform="rotate(90 451.113 5.5)" fill="#0A0C35" fill-opacity="0.06"/>
<circle cx="451.113" cy="26.5205" r="5.5" transform="rotate(90 451.113 26.5205)" fill="#0A0C35" fill-opacity="0.06"/>
<circle cx="484.113" cy="16.0103" r="5.5" fill="#0A0C35" fill-opacity="0.06"/>
<circle cx="505.133" cy="16.0103" r="5.5" fill="#0A0C35" fill-opacity="0.06"/>
<circle cx="494.623" cy="5.5" r="5.5" transform="rotate(90 494.623 5.5)" fill="#0A0C35" fill-opacity="0.06"/>
<circle cx="494.623" cy="26.5205" r="5.5" transform="rotate(90 494.623 26.5205)" fill="#0A0C35" fill-opacity="0.06"/>
<circle cx="527.623" cy="16.0103" r="5.5" fill="#0A0C35" fill-opacity="0.06"/>
<circle cx="548.644" cy="16.0103" r="5.5" fill="#0A0C35" fill-opacity="0.06"/>
<circle cx="538.133" cy="5.5" r="5.5" transform="rotate(90 538.133 5.5)" fill="#0A0C35" fill-opacity="0.06"/>
<circle cx="538.133" cy="26.5205" r="5.5" transform="rotate(90 538.133 26.5205)" fill="#0A0C35" fill-opacity="0.06"/>
<circle cx="571.133" cy="16.0103" r="5.5" fill="#0A0C35" fill-opacity="0.06"/>
<circle cx="592.154" cy="16.0103" r="5.5" fill="#0A0C35" fill-opacity="0.06"/>
<circle cx="581.644" cy="5.5" r="5.5" transform="rotate(90 581.644 5.5)" fill="#0A0C35" fill-opacity="0.06"/>
<circle cx="581.644" cy="26.5205" r="5.5" transform="rotate(90 581.644 26.5205)" fill="#0A0C35" fill-opacity="0.06"/>
<circle cx="614.644" cy="16.0103" r="5.5" fill="#0A0C35" fill-opacity="0.06"/>
<circle cx="635.664" cy="16.0103" r="5.5" fill="#0A0C35" fill-opacity="0.06"/>
<circle cx="625.154" cy="5.5" r="5.5" transform="rotate(90 625.154 5.5)" fill="#0A0C35" fill-opacity="0.06"/>
<circle cx="625.154" cy="26.5205" r="5.5" transform="rotate(90 625.154 26.5205)" fill="#0A0C35" fill-opacity="0.06"/>
<circle cx="658.154" cy="16.0103" r="5.5" fill="#0A0C35" fill-opacity="0.06"/>
<circle cx="679.174" cy="16.0103" r="5.5" fill="#0A0C35" fill-opacity="0.06"/>
<circle cx="668.664" cy="5.5" r="5.5" transform="rotate(90 668.664 5.5)" fill="#0A0C35" fill-opacity="0.06"/>
<circle cx="668.664" cy="26.5205" r="5.5" transform="rotate(90 668.664 26.5205)" fill="#0A0C35" fill-opacity="0.06"/>
<circle cx="701.664" cy="16.0103" r="5.5" fill="#0A0C35" fill-opacity="0.06"/>
<circle cx="722.685" cy="16.0103" r="5.5" fill="#0A0C35" fill-opacity="0.06"/>
<circle cx="712.174" cy="5.5" r="5.5" transform="rotate(90 712.174 5.5)" fill="#0A0C35" fill-opacity="0.06"/>
<circle cx="712.174" cy="26.5205" r="5.5" transform="rotate(90 712.174 26.5205)" fill="#0A0C35" fill-opacity="0.06"/>
<circle cx="745.174" cy="16.0103" r="5.5" fill="#0A0C35" fill-opacity="0.06"/>
<circle cx="766.195" cy="16.0103" r="5.5" fill="#0A0C35" fill-opacity="0.06"/>
<circle cx="755.685" cy="5.5" r="5.5" transform="rotate(90 755.685 5.5)" fill="#0A0C35" fill-opacity="0.06"/>
<circle cx="755.685" cy="26.5205" r="5.5" transform="rotate(90 755.685 26.5205)" fill="#0A0C35" fill-opacity="0.06"/>
<circle cx="788.685" cy="16.0103" r="5.5" fill="#0A0C35" fill-opacity="0.06"/>
<circle cx="809.705" cy="16.0103" r="5.5" fill="#0A0C35" fill-opacity="0.06"/>
<circle cx="799.195" cy="5.5" r="5.5" transform="rotate(90 799.195 5.5)" fill="#0A0C35" fill-opacity="0.06"/>
<circle cx="799.195" cy="26.5205" r="5.5" transform="rotate(90 799.195 26.5205)" fill="#0A0C35" fill-opacity="0.06"/>
<circle cx="832.195" cy="16.0103" r="5.5" fill="#0A0C35" fill-opacity="0.06"/>
<circle cx="853.215" cy="16.0103" r="5.5" fill="#0A0C35" fill-opacity="0.06"/>
<circle cx="842.705" cy="5.5" r="5.5" transform="rotate(90 842.705 5.5)" fill="#0A0C35" fill-opacity="0.06"/>
<circle cx="842.705" cy="26.5205" r="5.5" transform="rotate(90 842.705 26.5205)" fill="#0A0C35" fill-opacity="0.06"/>
<circle cx="875.705" cy="16.0103" r="5.5" fill="#0A0C35" fill-opacity="0.06"/>
<circle cx="896.726" cy="16.0103" r="5.5" fill="#0A0C35" fill-opacity="0.06"/>
<circle cx="886.215" cy="5.5" r="5.5" transform="rotate(90 886.215 5.5)" fill="#0A0C35" fill-opacity="0.06"/>
<circle cx="886.215" cy="26.5205" r="5.5" transform="rotate(90 886.215 26.5205)" fill="#0A0C35" fill-opacity="0.06"/>
<circle cx="919.215" cy="16.0103" r="5.5" fill="#0A0C35" fill-opacity="0.06"/>
<circle cx="940.236" cy="16.0103" r="5.5" fill="#0A0C35" fill-opacity="0.06"/>
<circle cx="929.726" cy="5.5" r="5.5" transform="rotate(90 929.726 5.5)" fill="#0A0C35" fill-opacity="0.06"/>
<circle cx="929.726" cy="26.5205" r="5.5" transform="rotate(90 929.726 26.5205)" fill="#0A0C35" fill-opacity="0.06"/>
<circle cx="962.726" cy="16.0103" r="5.5" fill="#0A0C35" fill-opacity="0.06"/>
<circle cx="983.746" cy="16.0103" r="5.5" fill="#0A0C35" fill-opacity="0.06"/>
<circle cx="973.236" cy="5.5" r="5.5" transform="rotate(90 973.236 5.5)" fill="#0A0C35" fill-opacity="0.06"/>
<circle cx="973.236" cy="26.5205" r="5.5" transform="rotate(90 973.236 26.5205)" fill="#0A0C35" fill-opacity="0.06"/>
<circle cx="1006.24" cy="16.0103" r="5.5" fill="#0A0C35" fill-opacity="0.06"/>
<circle cx="1027.26" cy="16.0103" r="5.5" fill="#0A0C35" fill-opacity="0.06"/>
<circle cx="1016.75" cy="5.5" r="5.5" transform="rotate(90 1016.75 5.5)" fill="#0A0C35" fill-opacity="0.06"/>
<circle cx="1016.75" cy="26.5205" r="5.5" transform="rotate(90 1016.75 26.5205)" fill="#0A0C35" fill-opacity="0.06"/>
<circle cx="1049.75" cy="16.0103" r="5.5" fill="#0A0C35" fill-opacity="0.06"/>
<circle cx="1070.77" cy="16.0103" r="5.5" fill="#0A0C35" fill-opacity="0.06"/>
<circle cx="1060.26" cy="5.5" r="5.5" transform="rotate(90 1060.26 5.5)" fill="#0A0C35" fill-opacity="0.06"/>
<circle cx="1060.26" cy="26.5205" r="5.5" transform="rotate(90 1060.26 26.5205)" fill="#0A0C35" fill-opacity="0.06"/>
<circle cx="1093.26" cy="16.0103" r="5.5" fill="#0A0C35" fill-opacity="0.06"/>
<circle cx="1114.28" cy="16.0103" r="5.5" fill="#0A0C35" fill-opacity="0.06"/>
<circle cx="1103.77" cy="5.5" r="5.5" transform="rotate(90 1103.77 5.5)" fill="#0A0C35" fill-opacity="0.06"/>
<circle cx="1103.77" cy="26.5205" r="5.5" transform="rotate(90 1103.77 26.5205)" fill="#0A0C35" fill-opacity="0.06"/>
<circle cx="1136.77" cy="16.0103" r="5.5" fill="#0A0C35" fill-opacity="0.06"/>
<circle cx="1157.79" cy="16.0103" r="5.5" fill="#0A0C35" fill-opacity="0.06"/>
<circle cx="1147.28" cy="5.5" r="5.5" transform="rotate(90 1147.28 5.5)" fill="#0A0C35" fill-opacity="0.06"/>
<circle cx="1147.28" cy="26.5205" r="5.5" transform="rotate(90 1147.28 26.5205)" fill="#0A0C35" fill-opacity="0.06"/>
<circle cx="1180.28" cy="16.0103" r="5.5" fill="#0A0C35" fill-opacity="0.06"/>
<circle cx="1201.3" cy="16.0103" r="5.5" fill="#0A0C35" fill-opacity="0.06"/>
<circle cx="1190.79" cy="5.5" r="5.5" transform="rotate(90 1190.79 5.5)" fill="#0A0C35" fill-opacity="0.06"/>
<circle cx="1190.79" cy="26.5205" r="5.5" transform="rotate(90 1190.79 26.5205)" fill="#0A0C35" fill-opacity="0.06"/>
</svg>
