<svg width="128" height="128" viewBox="0 0 128 128" fill="none" xmlns="http://www.w3.org/2000/svg">
<path d="M115.069 28.6863C118.709 24.844 120.08 17.6087 119.137 13.0025C118.036 7.99177 113.766 4.4191 109.093 2.89117C105.992 1.85757 102.352 1.85757 99.251 3.02599C96.7117 1.45312 93.6109 0.756558 90.6676 0.958785C88.2633 1.0936 86.0613 1.79016 84.0615 2.89117C80.6237 0.891376 76.1522 0.891376 72.3773 1.65534C71.1415 1.92498 69.636 2.41931 68.1081 3.22821C64.5357 -0.479269 58.6934 -0.479269 54.0871 0.68915C52.649 1.02619 51.0537 1.72275 49.5482 2.55413C45.7059 0.981254 41.0997 0.756558 37.3023 1.11607C35.5722 1.25089 33.7297 1.58793 31.9321 2.08226C29.1908 1.04866 25.9552 1.18348 22.9892 1.94745C14.608 4.01465 2.63175 14.7326 11.9791 23.0464C13.2149 24.1474 14.5182 24.9114 16.0461 25.5854C14.3384 27.2257 13.1475 29.1581 12.7431 31.4275C12.4734 31.6298 12.2712 31.9668 12.1139 32.3263C8.04692 47.4484 8.81088 62.7951 9.57485 78.2542C10.1141 89.8707 8.67606 102.117 14.3833 112.7C23.2588 129.058 49.5258 125.98 64.6478 126.788C80.4662 127.687 106.172 132.428 114.148 114.07C119.159 102.454 117.923 86.0958 117.856 73.7825C117.608 59.2224 117.743 43.0668 115.069 28.6863ZM107.857 7.25027C111.092 8.35128 113.699 10.8903 114.597 14.2608C115.137 16.328 114.665 18.4626 114.058 20.3725C113.654 21.6757 112.89 22.8442 112.126 24.0126C109.991 22.1476 107.115 20.9118 104.082 20.1703C105.587 15.9011 104.913 10.2612 102.778 6.68853C104.419 6.4863 106.194 6.75594 107.857 7.25027ZM98.2845 8.35128C98.4196 8.4861 98.5542 8.62091 98.6892 8.82314C100.959 12.1262 99.79 15.6314 99.453 19.1367C98.0823 18.9345 96.7793 18.7322 95.5435 18.5075C95.8129 14.9349 95.2062 10.8903 98.2845 8.35128ZM90.5325 5.38529C91.9706 5.31788 93.4985 5.4527 94.8694 6.01444C92.0607 9.25006 91.2293 14.2608 92.9368 18.193C91.6335 17.9907 90.3303 17.8559 89.0273 17.6537C89.9935 13.8114 89.2967 9.33994 87.1621 6.10432C88.2631 5.72234 89.3641 5.52011 90.5325 5.38529ZM83.2299 8.35128C85.2297 10.7555 84.5334 14.0586 84.1963 17.1594C82.8255 17.0245 81.455 16.9571 80.0619 16.8897C79.9269 13.4294 81.0279 10.4185 83.2299 8.35128ZM73.4781 6.01444C75.4105 5.60999 77.7473 5.54258 79.7247 6.14926C77.1856 8.95796 75.9498 12.7553 76.7587 16.5976C74.9611 16.5302 73.1186 16.3954 71.321 16.3954C71.8603 13.362 71.4561 9.78933 70.2203 6.91322C71.3435 6.4863 72.4445 6.21667 73.4781 6.01444ZM65.9733 8.95796C66.8047 11.2274 66.1755 13.8339 65.9059 16.3055C64.8049 16.3055 63.6364 16.3729 62.5354 16.3729C61.5018 13.1598 63.2994 10.6881 65.9733 8.95796ZM55.1879 5.18307C57.8618 4.48651 61.0974 4.35169 63.5016 5.87962C59.6593 8.84561 56.8282 12.7553 59.0976 16.3954C58.4684 16.3954 57.7944 16.3954 57.1652 16.3954C56.7607 16.3954 56.2664 16.3954 55.7946 16.4628C57.0304 12.8227 56.4237 8.41869 53.8622 5.60999C54.3565 5.4527 54.761 5.31788 55.1879 5.18307ZM49.1436 7.99177C49.2784 8.05917 49.4806 8.19399 49.6154 8.2614C52.9859 10.5308 51.3456 13.7664 50.0873 16.71C48.8515 16.7774 47.5482 16.8448 46.1776 16.9122C43.5711 13.362 45.8405 10.1938 49.1436 7.99177ZM37.1673 5.87962C39.5715 5.60999 42.1106 5.6774 44.5822 6.21667C41.3466 9.5197 39.7737 13.6316 42.6498 17.2268C41.077 17.3616 39.4142 17.5638 37.774 17.766C38.6727 13.6316 38.6053 9.18265 36.6055 6.01444C36.8302 5.94703 37.0325 5.94703 37.1673 5.87962ZM25.7527 10.5533C26.9886 8.98043 28.9209 7.94683 30.8983 7.18286C31.1005 7.31768 31.2353 7.38509 31.3701 7.5199C32.6059 8.5535 33.1003 10.1938 33.1677 12.1936C33.2351 14.463 32.6958 16.5302 32.0667 18.6648C30.3365 19.0019 28.6962 19.4288 27.1234 19.9006C25.146 17.0021 23.4159 13.4968 25.7527 10.5533ZM14.1359 19.1367C13.0349 17.6312 13.0349 16.4628 13.4394 14.9349C14.4056 11.8341 18.2479 9.09277 21.4835 7.72213C21.9554 7.5199 22.4497 7.31768 22.9216 7.18286C22.5171 7.65472 22.1576 8.08164 21.8205 8.62091C19.0793 12.8901 20.9892 17.4964 24.09 20.8668C22.225 21.5634 20.4499 22.3049 18.922 23.2711C17.1019 22.1701 15.3044 20.8668 14.1359 19.1367ZM110.261 98.5442C109.025 112.925 104.486 119.868 89.7686 121.171C81.4548 121.935 72.849 120.901 64.5352 120.34C49.4132 119.374 25.146 123.081 18.0457 105.757C13.9113 95.6456 15.9785 80.7932 15.4392 69.9406C15.1021 63.5368 14.9673 57.1554 15.0347 50.8188C22.944 54.1892 50.2446 49.3807 54.6486 49.0212C66.3328 48.1224 78.0844 47.2911 89.8584 47.1562C94.0603 47.0888 98.2398 47.2237 102.441 47.6281C104.778 47.8303 108.688 49.3583 108.688 49.2684C108.89 50.4368 109.924 50.9761 111.025 51.066C111.969 66.9295 111.564 83.3548 110.261 98.5442Z" fill="#333333"/>
</svg>
