<svg width="1467" height="282" viewBox="0 0 1467 282" fill="none" xmlns="http://www.w3.org/2000/svg">
<path fill-rule="evenodd" clip-rule="evenodd" d="M163.2 0C164.127 4.56451 168.162 8.00007 173 8.00007C177.838 8.00007 181.873 4.56451 182.8 0H1467V151.623C1278.26 142.415 1222.09 191.828 1181.74 227.329C1167.97 239.447 1156.04 249.943 1141.3 255.935C1095.74 274.465 1076.77 277.428 1003.62 239.829C1013.43 238.544 1021 230.156 1021 220C1021 208.954 1012.05 200 1001 200C989.954 200 981 208.954 981 220C981 223.246 981.773 226.312 983.146 229.023C981.162 227.953 979.143 226.858 977.088 225.74C900.453 184.015 817.433 208.354 785.502 225.74C777.746 229.962 770.806 234.09 764.375 237.915L764.371 237.918L764.37 237.918C724.816 261.445 704.516 273.519 632.233 225.74C620.823 218.198 609.438 212.788 598.286 209.112C599.388 206.633 600 203.888 600 201C600 189.954 591.046 181 580 181C568.954 181 560 189.954 560 201C560 201.565 560.023 202.125 560.069 202.679C528.173 202.249 500.892 213.891 484.438 225.74C431.068 264.173 341.023 328.954 238.114 225.74C135.205 122.526 36.4925 182.734 0 225.74V0H163.2ZM1219 65C1230.05 65 1239 56.0457 1239 45C1239 33.9543 1230.05 25 1219 25C1207.95 25 1199 33.9543 1199 45C1199 56.0457 1207.95 65 1219 65ZM1370 82C1370 90.2843 1363.28 97 1355 97C1346.72 97 1340 90.2843 1340 82C1340 73.7157 1346.72 67 1355 67C1363.28 67 1370 73.7157 1370 82ZM1149 101C1154.52 101 1159 105.477 1159 111C1159 116.523 1154.52 121 1149 121C1143.48 121 1139 116.523 1139 111C1139 105.477 1143.48 101 1149 101ZM436 216C441.523 216 446 211.523 446 206C446 200.477 441.523 196 436 196C430.477 196 426 200.477 426 206C426 211.523 430.477 216 436 216ZM300 45C300 50.5229 295.523 55 290 55C284.477 55 280 50.5229 280 45C280 39.4772 284.477 35 290 35C295.523 35 300 39.4772 300 45ZM80 60C80 62.7615 77.7614 65 75 65C72.2386 65 70 62.7615 70 60C70 57.2386 72.2386 55 75 55C77.7614 55 80 57.2386 80 60ZM560 72C562.761 72 565 69.7615 565 67C565 64.2386 562.761 62 560 62C557.239 62 555 64.2386 555 67C555 69.7615 557.239 72 560 72ZM952 30C954.761 30 957 32.2386 957 35C957 37.7615 954.761 40 952 40C949.239 40 947 37.7615 947 35C947 32.2386 949.239 30 952 30ZM221 60C209.954 60 201 68.9543 201 80C201 91.0457 209.954 100 221 100C232.046 100 241 91.0457 241 80C241 68.9543 232.046 60 221 60ZM85 65C76.7157 65 70 71.7157 70 80C70 88.2843 76.7157 95 85 95C93.2843 95 100 88.2843 100 80C100 71.7157 93.2843 65 85 65ZM1039 70.0001C1033.48 70.0001 1029 74.4773 1029 80.0001C1029 85.523 1033.48 90.0001 1039 90.0001C1044.52 90.0001 1049 85.523 1049 80.0001C1049 74.4773 1044.52 70.0001 1039 70.0001ZM1324 111C1321.24 111 1319 113.239 1319 116C1319 118.761 1321.24 121 1324 121C1326.76 121 1329 118.761 1329 116C1329 113.239 1326.76 111 1324 111ZM875 58.0001C875 55.2387 877.239 53.0001 880 53.0001C882.761 53.0001 885 55.2387 885 58.0001C885 60.7615 882.761 63.0001 880 63.0001C877.239 63.0001 875 60.7615 875 58.0001ZM483 90C483 92.7615 485.239 95 488 95C490.761 95 493 92.7615 493 90C493 87.2386 490.761 85 488 85C485.239 85 483 87.2386 483 90Z" fill="url(#paint0_linear_1253_113)"/>
<defs>
<linearGradient id="paint0_linear_1253_113" x1="733.5" y1="0" x2="733.5" y2="281.397" gradientUnits="userSpaceOnUse">
<stop stop-color="#F3F3F5"/>
<stop offset="1" stop-color="#EDEDF1"/>
</linearGradient>
</defs>
</svg>
