<svg width="135" height="135" viewBox="0 0 135 135" fill="none" xmlns="http://www.w3.org/2000/svg">
<g clip-path="url(#clip0_797_51)">
<g clip-path="url(#clip1_797_51)">
<rect x="31" y="37" width="72.0071" height="72.0071" rx="6" fill="#0A0C35"/>
<path d="M80.8946 105.933H53.2727C48.1497 105.933 43.3336 103.938 39.7111 100.316C36.0886 96.6938 34.094 91.8777 34.094 86.7547V59.1321C34.094 54.0091 36.0886 49.193 39.7111 45.5705C43.3336 41.948 48.1497 39.9534 53.2727 39.9534H67.0837C67.8786 39.9534 68.5236 40.5983 68.5236 41.3933C68.5236 42.1882 67.8786 42.8332 67.0837 42.8332H53.2727C44.2855 42.8332 36.973 50.1448 36.973 59.1329V86.7547C36.973 95.742 44.2847 103.054 53.2727 103.054H80.8946C89.8818 103.054 97.1943 95.7427 97.1943 86.7547V72.943C97.1943 72.1481 97.8392 71.5031 98.6342 71.5031C99.4292 71.5031 100.074 72.1481 100.074 72.943V86.754C100.074 91.877 98.0787 96.6931 94.4569 100.316C90.8337 103.938 86.0176 105.933 80.8946 105.933Z" fill="#00BCB1"/>
<path d="M67.0837 74.5866C67.9915 74.5866 68.7275 73.8507 68.7275 72.9428C68.7275 72.035 67.9915 71.2991 67.0837 71.2991C66.1759 71.2991 65.4399 72.035 65.4399 72.9428C65.4399 73.8507 66.1759 74.5866 67.0837 74.5866Z" fill="#00BCB1"/>
<path d="M61.2696 74.6378L48.2801 82.1374C47.5913 82.5353 47.3556 83.4159 47.7534 84.104C48.0202 84.5663 48.5045 84.824 49.0016 84.824C49.2456 84.824 49.4935 84.7618 49.72 84.6307L62.711 77.1304C62.0464 76.4369 61.5454 75.5851 61.2696 74.6378Z" fill="white"/>
<path d="M61.0278 72.9434C61.0278 72.4471 61.0892 71.9651 61.2013 71.5035H46.2021C45.4071 71.5035 44.7622 72.1485 44.7622 72.9434C44.7622 73.7384 45.4071 74.3833 46.2021 74.3833H61.2006C61.0884 73.9218 61.0278 73.4398 61.0278 72.9434Z" fill="white"/>
<path d="M62.8966 68.571C63.5908 67.9064 64.4419 67.4054 65.3899 67.1296L57.8903 54.1401C57.4924 53.4513 56.6118 53.2156 55.9237 53.6134C55.2348 54.0113 54.9991 54.8919 55.397 55.58L62.8966 68.571Z" fill="white"/>
<path d="M67.0837 66.8872C67.5801 66.8872 68.0621 66.9485 68.5236 67.0607V52.0615C68.5236 51.2665 67.8787 50.6216 67.0837 50.6216C66.2887 50.6216 65.6438 51.2665 65.6438 52.0615V67.0599C66.1053 66.9478 66.5873 66.8872 67.0837 66.8872Z" fill="white"/>
<path d="M48.2801 63.7503L61.2696 71.2499C61.5454 70.3018 62.0464 69.4508 62.711 68.7566L49.72 61.2562C49.0312 60.8583 48.1506 61.0948 47.7534 61.7829C47.3556 62.4718 47.5913 63.3524 48.2801 63.7503Z" fill="white"/>
<path d="M85.8874 82.1368L72.898 74.6372C72.6221 75.5853 72.1212 76.4363 71.4565 77.1305L84.4475 84.6309C84.6741 84.762 84.9219 84.8241 85.1659 84.8241C85.6638 84.8241 86.1473 84.5657 86.4141 84.1042C86.812 83.4153 86.5763 82.5347 85.8874 82.1368Z" fill="white"/>
<path d="M87.9653 71.5035H72.9661C73.079 71.9651 73.1396 72.4471 73.1396 72.9434C73.1396 73.4398 73.0782 73.9218 72.9661 74.3833H87.9645C88.7595 74.3833 89.4044 73.7384 89.4044 72.9434C89.4044 72.1485 88.7603 71.5035 87.9653 71.5035Z" fill="white"/>
<path d="M71.2706 77.3159C70.5765 77.9805 69.7254 78.4815 68.7773 78.7573L76.277 91.7468C76.5437 92.209 77.028 92.4667 77.5251 92.4667C77.7691 92.4667 78.017 92.4046 78.2436 92.2735C78.9324 91.8756 79.1681 90.995 78.7703 90.3069L71.2706 77.3159Z" fill="white"/>
<path d="M67.0837 78.999C66.5873 78.999 66.1053 78.9376 65.6438 78.8254V93.8239C65.6438 94.6189 66.2887 95.2638 67.0837 95.2638C67.8787 95.2638 68.5236 94.6189 68.5236 93.8239V78.8254C68.0621 78.9384 67.5801 78.999 67.0837 78.999Z" fill="white"/>
<path d="M74.052 70.3613C73.5541 70.3613 73.0706 70.1029 72.8038 69.6414C72.406 68.9525 72.6424 68.0719 73.3305 67.6748L80.3762 63.6067C81.0651 63.2088 81.9457 63.4453 82.3428 64.1334C82.7407 64.8223 82.5042 65.7029 81.8161 66.1L74.7704 70.1681C74.5438 70.2992 74.296 70.3613 74.052 70.3613Z" fill="white"/>
<path d="M85.068 56.4244C84.6974 56.4244 84.3275 56.2826 84.0464 55.9992C83.4863 55.4346 83.4894 54.5229 84.054 53.9629L89.828 48.2313C90.3926 47.6713 91.3042 47.6743 91.8643 48.2389C92.4243 48.8035 92.4213 49.7152 91.8567 50.2752L86.0827 56.0068C85.8015 56.2849 85.4347 56.4244 85.068 56.4244Z" fill="white"/>
<path d="M73.8912 62.5913C73.648 62.5913 73.4017 62.5299 73.1758 62.4003C72.4862 62.0047 72.2482 61.1241 72.6438 60.4345L76.6938 53.3782C77.0893 52.6886 77.9692 52.4498 78.6596 52.8462C79.3492 53.2418 79.5872 54.1224 79.1916 54.812L75.1417 61.8683C74.8749 62.3314 74.3899 62.5913 73.8912 62.5913Z" fill="white"/>
<path d="M84.9345 64.3128C85.8424 64.3128 86.5783 63.5769 86.5783 62.669C86.5783 61.7612 85.8424 61.0253 84.9345 61.0253C84.0267 61.0253 83.2908 61.7612 83.2908 62.669C83.2908 63.5769 84.0267 64.3128 84.9345 64.3128Z" fill="#00BCB1"/>
<path d="M93.9953 47.8046C94.9031 47.8046 95.6391 47.0687 95.6391 46.1609C95.6391 45.253 94.9031 44.5171 93.9953 44.5171C93.0875 44.5171 92.3516 45.253 92.3516 46.1609C92.3516 47.0687 93.0875 47.8046 93.9953 47.8046Z" fill="#00BCB1"/>
<path d="M80.1648 51.9213C81.0726 51.9213 81.8085 51.1854 81.8085 50.2776C81.8085 49.3697 81.0726 48.6338 80.1648 48.6338C79.2569 48.6338 78.521 49.3697 78.521 50.2776C78.521 51.1854 79.2569 51.9213 80.1648 51.9213Z" fill="#00BCB1"/>
<path d="M92.792 59.7448C93.6998 59.7448 94.4357 59.0089 94.4357 58.101C94.4357 57.1932 93.6998 56.4573 92.792 56.4573C91.8841 56.4573 91.1482 57.1932 91.1482 58.101C91.1482 59.0089 91.8841 59.7448 92.792 59.7448Z" fill="#00BCB1"/>
<path d="M61.7424 94.5379C62.6502 94.5379 63.3862 93.802 63.3862 92.8941C63.3862 91.9863 62.6502 91.2504 61.7424 91.2504C60.8346 91.2504 60.0986 91.9863 60.0986 92.8941C60.0986 93.802 60.8346 94.5379 61.7424 94.5379Z" fill="#00BCB1"/>
<path d="M52.4694 89.1811C53.3773 89.1811 54.1132 88.4451 54.1132 87.5373C54.1132 86.6295 53.3773 85.8936 52.4694 85.8936C51.5616 85.8936 50.8257 86.6295 50.8257 87.5373C50.8257 88.4451 51.5616 89.1811 52.4694 89.1811Z" fill="#00BCB1"/>
<path d="M47.1252 79.9344C48.033 79.9344 48.769 79.1984 48.769 78.2906C48.769 77.3828 48.033 76.6469 47.1252 76.6469C46.2174 76.6469 45.4814 77.3828 45.4814 78.2906C45.4814 79.1984 46.2174 79.9344 47.1252 79.9344Z" fill="#00BCB1"/>
<path d="M47.1259 69.2353C48.0338 69.2353 48.7697 68.4993 48.7697 67.5915C48.7697 66.6837 48.0338 65.9478 47.1259 65.9478C46.2181 65.9478 45.4822 66.6837 45.4822 67.5915C45.4822 68.4993 46.2181 69.2353 47.1259 69.2353Z" fill="#00BCB1"/>
<path d="M52.477 59.9714C53.3848 59.9714 54.1208 59.2354 54.1208 58.3276C54.1208 57.4198 53.3848 56.6838 52.477 56.6838C51.5692 56.6838 50.8333 57.4198 50.8333 58.3276C50.8333 59.2354 51.5692 59.9714 52.477 59.9714Z" fill="#00BCB1"/>
<path d="M61.7448 54.6259C62.6527 54.6259 63.3886 53.89 63.3886 52.9821C63.3886 52.0743 62.6527 51.3384 61.7448 51.3384C60.837 51.3384 60.1011 52.0743 60.1011 52.9821C60.1011 53.89 60.837 54.6259 61.7448 54.6259Z" fill="#00BCB1"/>
<path d="M87.0371 79.9557C87.9449 79.9557 88.6808 79.2198 88.6808 78.312C88.6808 77.4042 87.9449 76.6682 87.0371 76.6682C86.1292 76.6682 85.3933 77.4042 85.3933 78.312C85.3933 79.2198 86.1292 79.9557 87.0371 79.9557Z" fill="#00BCB1"/>
<path d="M81.6767 89.215C82.5845 89.215 83.3205 88.4791 83.3205 87.5713C83.3205 86.6634 82.5845 85.9275 81.6767 85.9275C80.7689 85.9275 80.033 86.6634 80.033 87.5713C80.033 88.4791 80.7689 89.215 81.6767 89.215Z" fill="#00BCB1"/>
<path d="M72.4045 94.5524C73.3123 94.5524 74.0483 93.8165 74.0483 92.9087C74.0483 92.0008 73.3123 91.2649 72.4045 91.2649C71.4967 91.2649 70.7607 92.0008 70.7607 92.9087C70.7607 93.8165 71.4967 94.5524 72.4045 94.5524Z" fill="#00BCB1"/>
<path d="M62.9118 77.3527C61.9911 78.5137 61.0263 79.8384 60.0608 81.3344C57.4516 85.3759 55.3736 89.8359 53.8844 94.589C52.0277 100.516 51.0857 106.917 51.0857 113.615C51.0857 114.41 51.7306 115.055 52.5256 115.055C53.3206 115.055 53.9655 114.41 53.9655 113.615C53.9655 99.1975 58.5542 89.0166 62.4033 83.0145C63.4378 81.4018 64.476 79.9953 65.4529 78.791C64.4881 78.5235 63.6197 78.0226 62.9118 77.3527Z" fill="white"/>
</g>
<path d="M34.2061 118.008H35.3658V122.675C35.3637 123.103 35.2754 123.471 35.1011 123.78C34.9267 124.087 34.683 124.324 34.37 124.49C34.0591 124.654 33.6967 124.736 33.2828 124.736C32.9046 124.736 32.5643 124.667 32.2618 124.529C31.9614 124.389 31.7229 124.181 31.5464 123.907C31.37 123.632 31.2817 123.291 31.2817 122.883H32.4446C32.4467 123.062 32.4845 123.216 32.558 123.346C32.6336 123.476 32.7376 123.575 32.87 123.644C33.0023 123.713 33.1546 123.748 33.3269 123.748C33.5139 123.748 33.6725 123.708 33.8027 123.628C33.933 123.546 34.0317 123.425 34.099 123.265C34.1683 123.105 34.204 122.909 34.2061 122.675V118.008Z" fill="#333333"/>
<path d="M36.6342 124.646V118.008H40.8316V119.016H37.8033V120.818H40.6142V121.826H37.8033V123.638H40.8569V124.646H36.6342Z" fill="#333333"/>
<path d="M41.7408 119.016V118.008H46.8899V119.016H44.8952V124.646H43.7355V119.016H41.7408Z" fill="#333333"/>
<path d="M47.7628 124.646V123.897L51.0717 119.016H47.7439V118.008H52.5213V118.757L49.2156 123.638H52.5402V124.646H47.7628Z" fill="#333333"/>
<path d="M53.3878 119.016V118.008H58.537V119.016H56.5423V124.646H55.3826V119.016H53.3878Z" fill="#333333"/>
<path d="M66.2529 118.008H66.8422V122.403C66.8422 122.855 66.7392 123.259 66.5333 123.615C66.3275 123.969 66.0407 124.249 65.673 124.454C65.3075 124.658 64.8821 124.759 64.3968 124.759C63.9136 124.759 63.4882 124.656 63.1205 124.451C62.7529 124.246 62.4661 123.966 62.2602 123.612C62.0543 123.258 61.9514 122.855 61.9514 122.403V118.008H62.5407V122.361C62.5407 122.713 62.6174 123.027 62.7707 123.304C62.9241 123.578 63.1394 123.794 63.4167 123.952C63.6962 124.11 64.0228 124.189 64.3968 124.189C64.7707 124.189 65.0974 124.11 65.3768 123.952C65.6562 123.794 65.8716 123.578 66.0228 123.304C66.1762 123.027 66.2529 122.713 66.2529 122.361V118.008Z" fill="#333333"/>
<path d="M73.5811 118.008V124.646H73.0076L69.1946 119.088H69.1442V124.646H68.5549V118.008H69.1253L72.9509 123.573H73.0013V118.008H73.5811Z" fill="#333333"/>
<path d="M77.1878 124.646H75.297V118.008H77.3012C77.9168 118.008 78.443 118.14 78.88 118.404C79.3191 118.667 79.6552 119.045 79.8884 119.538C80.1216 120.031 80.2382 120.622 80.2382 121.311C80.2382 122.007 80.1184 122.604 79.8789 123.103C79.6415 123.6 79.2949 123.981 78.839 124.247C78.3852 124.513 77.8348 124.646 77.1878 124.646ZM75.8863 124.101H77.1531C77.7077 124.101 78.172 123.989 78.546 123.764C78.9199 123.539 79.2004 123.219 79.3873 122.802C79.5743 122.385 79.6678 121.888 79.6678 121.311C79.6657 120.738 79.5733 120.246 79.3905 119.833C79.2098 119.42 78.9409 119.104 78.5838 118.883C78.2287 118.663 77.7897 118.553 77.2665 118.553H75.8863V124.101Z" fill="#333333"/>
<path d="M83.6471 124.646V118.008H84.8162V120.818H87.8067V118.008H88.979V124.646H87.8067V121.826H84.8162V124.646H83.6471Z" fill="#333333"/>
<path d="M91.4197 118.008V124.646H90.2505V118.008H91.4197Z" fill="#333333"/>
<path d="M92.6857 124.646V118.008H96.8832V119.016H93.8548V120.818H96.6657V121.826H93.8548V123.638H96.9084V124.646H92.6857Z" fill="#333333"/>
<path d="M98.0759 124.646V118.008H100.496C100.992 118.008 101.408 118.097 101.744 118.274C102.082 118.451 102.337 118.7 102.51 119.02C102.684 119.337 102.771 119.708 102.771 120.131C102.771 120.557 102.683 120.926 102.507 121.24C102.332 121.551 102.075 121.792 101.735 121.962C101.394 122.131 100.976 122.215 100.48 122.215H98.7566V121.217H100.323C100.613 121.217 100.85 121.176 101.035 121.094C101.22 121.009 101.356 120.887 101.445 120.727C101.535 120.565 101.58 120.367 101.58 120.131C101.58 119.896 101.535 119.695 101.445 119.528C101.354 119.36 101.217 119.232 101.032 119.146C100.847 119.057 100.608 119.013 100.316 119.013H99.245V124.646H98.0759ZM101.41 121.638L103.008 124.646H101.703L100.134 121.638H101.41Z" fill="#333333"/>
<g filter="url(#filter0_d_797_51)">
<path d="M110.901 24.16C100.02 23.3246 91.9447 31.7144 86.8542 40.7862C93.7593 44.9787 101.328 47.9865 109.191 49.0098C109.648 46.5215 110.15 43.9282 111.7 41.9282C113.25 39.9283 116.193 38.7635 118.387 40.0233C119.883 40.8826 120.65 42.591 121.209 44.2231C122.196 47.1017 123.019 50.3305 123.297 53.3607C126.016 47.7072 127.331 41.4134 127.236 35.1426C123.967 29.0878 118.462 24.6413 110.901 24.16Z" fill="#D32F2F"/>
<path d="M123.976 19.7331C122.129 15.4577 119.4 11.3713 115.383 9.01559C110.653 6.24195 104.75 6.2295 99.4015 7.43872C87.649 10.0956 77.3484 18.5277 72.4225 29.5234C76.7389 33.73 81.6044 37.6001 86.8538 40.7867C91.9447 31.7152 100.02 23.3251 110.901 24.1605C118.461 24.6415 123.967 29.0883 127.236 35.1434C127.155 29.857 126.074 24.5877 123.976 19.7331Z" fill="#E53935"/>
<path d="M109.14 47.7717C111.608 41.4927 116.923 33.0507 112.709 26.3613C112.693 26.3358 112.659 26.3544 112.668 26.3816C115.395 34.1459 110.023 40.2889 108.463 47.5574C108.368 48.0004 108.971 48.2028 109.14 47.7717Z" fill="#B71C1C"/>
<path d="M118.162 30.665C118.163 30.5983 118.074 30.5857 118.05 30.6449C117.307 32.497 116.84 34.3646 115.763 36.0861C114.699 37.7856 113.341 39.1542 111.836 40.4542C111.451 40.7869 111.966 41.3588 112.358 41.0423C115.31 38.6591 118.095 34.5758 118.162 30.665Z" fill="#B71C1C"/>
<path d="M126.123 49.9098C125.583 49.6867 125.002 49.5425 124.395 49.4909C122.046 49.2906 119.786 50.7463 119.006 52.9705C118.732 53.7515 118.646 54.5647 118.727 55.3526C118.607 56.9178 119.235 58.568 120.434 59.5971C120.817 59.926 121.241 60.1873 121.691 60.3846C125.262 57.3103 129.314 53.8377 126.123 49.9098Z" fill="#ECEFF1"/>
<path d="M127.499 59.5135C129.12 58.1074 130.014 55.7444 129.424 53.63C128.943 51.9074 127.711 50.5655 126.123 49.9099C129.314 53.8378 125.261 57.3103 121.69 60.3851C123.575 61.2134 125.903 60.8985 127.499 59.5135Z" fill="#F6F8F9"/>
<path d="M109.35 46.4853C106.532 44.4023 102.734 43.0933 99.6518 41.3964C93.3772 37.9422 87.2642 34.1161 81.8542 29.3963C80.0798 27.8483 78.3006 26.159 76.047 25.4758C73.8081 24.7978 71.2556 25.2559 69.3923 26.6707C67.529 28.0854 66.4023 30.4213 66.4545 32.7604C66.4716 33.5333 66.6089 34.2747 66.8339 34.9887C68.4176 31.1634 72.6324 28.9705 75.8782 30.5445C87.5961 35.8242 98.516 42.3329 107.43 51.0343C108.308 51.8625 108.704 52.8621 108.738 53.958C108.843 53.7829 108.946 53.607 109.039 53.4265C110.08 51.401 111.489 48.0672 109.35 46.4853Z" fill="#F6F8F9"/>
<path d="M107.43 51.0339C98.5162 42.3325 87.5963 35.8239 75.8784 30.5441C72.6329 28.9697 68.4178 31.163 66.8341 34.9884C67.7428 37.8694 70.1475 40.2863 72.5115 42.3188C80.2192 48.9451 89.0323 54.5551 98.8674 57.1226C100.728 57.608 102.71 57.9805 104.554 57.4365C106.337 56.9107 107.78 55.5617 108.738 53.9584C108.704 52.8617 108.309 51.8622 107.43 51.0339Z" fill="#ECEFF1"/>
</g>
</g>
<defs>
<filter id="filter0_d_797_51" x="62.4529" y="6.67249" width="71.1536" height="62.1663" filterUnits="userSpaceOnUse" color-interpolation-filters="sRGB">
<feFlood flood-opacity="0" result="BackgroundImageFix"/>
<feColorMatrix in="SourceAlpha" type="matrix" values="0 0 0 0 0 0 0 0 0 0 0 0 0 0 0 0 0 0 127 0" result="hardAlpha"/>
<feOffset dy="4"/>
<feGaussianBlur stdDeviation="2"/>
<feComposite in2="hardAlpha" operator="out"/>
<feColorMatrix type="matrix" values="0 0 0 0 0 0 0 0 0 0 0 0 0 0 0 0 0 0 0.25 0"/>
<feBlend mode="normal" in2="BackgroundImageFix" result="effect1_dropShadow_797_51"/>
<feBlend mode="normal" in="SourceGraphic" in2="effect1_dropShadow_797_51" result="shape"/>
</filter>
<clipPath id="clip0_797_51">
<rect width="135" height="135" fill="white"/>
</clipPath>
<clipPath id="clip1_797_51">
<rect x="31" y="37" width="72.0071" height="72.0071" rx="6" fill="white"/>
</clipPath>
</defs>
</svg>
