<svg width="200" height="200" viewBox="0 0 200 200" fill="none" xmlns="http://www.w3.org/2000/svg">
<g clip-path="url(#clip0_1252_83)">
<g clip-path="url(#clip1_1252_83)">
<rect x="36" y="33.2224" width="128.257" height="128.257" rx="34.5703" fill="#0A0C35"/>
<path d="M124.871 156.005H75.6718C66.5469 156.005 57.9686 152.451 51.5163 146C45.064 139.547 41.5112 130.969 41.5112 121.844V72.6436C41.5112 63.5186 45.064 54.9403 51.5163 48.488C57.9686 42.0357 66.5469 38.4829 75.6718 38.4829H100.271C101.687 38.4829 102.836 39.6317 102.836 41.0477C102.836 42.4636 101.687 43.6124 100.271 43.6124H75.6718C59.664 43.6124 46.6393 56.6357 46.6393 72.6449V121.844C46.6393 137.852 59.6626 150.877 75.6718 150.877H124.871C140.879 150.877 153.904 137.853 153.904 121.844V97.2432C153.904 95.8272 155.052 94.6785 156.468 94.6785C157.884 94.6785 159.033 95.8272 159.033 97.2432V121.843C159.033 130.968 155.479 139.546 149.028 145.998C142.574 152.451 133.996 156.005 124.871 156.005Z" fill="#00BCB1"/>
<path d="M100.272 100.171C101.889 100.171 103.199 98.8599 103.199 97.2429C103.199 95.6259 101.889 94.3151 100.272 94.3151C98.6546 94.3151 97.3438 95.6259 97.3438 97.2429C97.3438 98.8599 98.6546 100.171 100.272 100.171Z" fill="#00BCB1"/>
<path d="M89.9156 100.262L66.7792 113.62C65.5522 114.329 65.1324 115.897 65.841 117.123C66.3162 117.946 67.1787 118.405 68.0642 118.405C68.4989 118.405 68.9403 118.295 69.3439 118.061L92.483 104.702C91.2992 103.467 90.4069 101.949 89.9156 100.262Z" fill="white"/>
<path d="M89.485 97.244C89.485 96.3599 89.5943 95.5014 89.7941 94.6793H63.0779C61.6619 94.6793 60.5132 95.828 60.5132 97.244C60.5132 98.66 61.6619 99.8087 63.0779 99.8087H89.7927C89.593 98.9867 89.485 98.1282 89.485 97.244Z" fill="white"/>
<path d="M92.8139 89.4558C94.0504 88.272 95.5662 87.3797 97.2549 86.8884L83.8968 63.752C83.1881 62.525 81.6196 62.1052 80.3939 62.8138C79.1669 63.5225 78.7471 65.091 79.4558 66.3167L92.8139 89.4558Z" fill="white"/>
<path d="M100.272 86.4567C101.156 86.4567 102.014 86.5661 102.836 86.7659V60.0497C102.836 58.6337 101.688 57.485 100.272 57.485C98.8558 57.485 97.707 58.6337 97.707 60.0497V86.7645C98.5291 86.5647 99.3876 86.4567 100.272 86.4567Z" fill="white"/>
<path d="M66.7792 80.8693L89.9156 94.2274C90.4069 92.5387 91.2992 91.0228 92.483 89.7864L69.3439 76.4269C68.1169 75.7183 66.5484 76.1394 65.841 77.3651C65.1324 78.5921 65.5522 80.1606 66.7792 80.8693Z" fill="white"/>
<path d="M133.764 113.619L110.627 100.261C110.136 101.949 109.244 103.465 108.06 104.702L131.199 118.061C131.603 118.295 132.044 118.405 132.479 118.405C133.366 118.405 134.227 117.945 134.702 117.123C135.411 115.896 134.991 114.328 133.764 113.619Z" fill="white"/>
<path d="M137.465 94.6793H110.749C110.95 95.5014 111.058 96.3599 111.058 97.244C111.058 98.1282 110.949 98.9867 110.749 99.8087H137.464C138.88 99.8087 140.029 98.66 140.029 97.244C140.029 95.828 138.881 94.6793 137.465 94.6793Z" fill="white"/>
<path d="M107.73 105.032C106.493 106.216 104.977 107.108 103.289 107.6L116.647 130.736C117.122 131.559 117.984 132.018 118.87 132.018C119.305 132.018 119.746 131.908 120.15 131.674C121.377 130.966 121.796 129.397 121.088 128.171L107.73 105.032Z" fill="white"/>
<path d="M100.272 108.03C99.3876 108.03 98.5291 107.921 97.707 107.721V134.436C97.707 135.852 98.8558 137.001 100.272 137.001C101.688 137.001 102.836 135.852 102.836 134.436V107.721C102.014 107.922 101.156 108.03 100.272 108.03Z" fill="white"/>
<path d="M112.684 92.6446C111.797 92.6446 110.936 92.1844 110.46 91.3623C109.752 90.1353 110.173 88.5668 111.399 87.8594L123.948 80.6134C125.175 79.9048 126.744 80.3259 127.451 81.5516C128.16 82.7786 127.738 84.3471 126.513 85.0545L113.963 92.3004C113.56 92.534 113.118 92.6446 112.684 92.6446Z" fill="white"/>
<path d="M132.305 67.8204C131.645 67.8204 130.986 67.568 130.485 67.0632C129.488 66.0575 129.493 64.4337 130.499 63.4361L140.783 53.2272C141.789 52.2297 143.413 52.2351 144.41 53.2407C145.408 54.2464 145.402 55.8702 144.397 56.8678L134.112 67.0767C133.611 67.5721 132.958 67.8204 132.305 67.8204Z" fill="white"/>
<path d="M112.397 78.8049C111.964 78.8049 111.525 78.6956 111.123 78.4648C109.895 77.7602 109.471 76.1916 110.176 74.9633L117.389 62.3948C118.094 61.1665 119.661 60.7413 120.891 61.4472C122.119 62.1519 122.543 63.7204 121.838 64.9487L114.625 77.5172C114.149 78.3419 113.286 78.8049 112.397 78.8049Z" fill="white"/>
<path d="M132.067 81.8713C133.684 81.8713 134.995 80.5605 134.995 78.9435C134.995 77.3265 133.684 76.0157 132.067 76.0157C130.45 76.0157 129.14 77.3265 129.14 78.9435C129.14 80.5605 130.45 81.8713 132.067 81.8713Z" fill="#00BCB1"/>
<path d="M148.206 52.4674C149.823 52.4674 151.134 51.1566 151.134 49.5396C151.134 47.9226 149.823 46.6118 148.206 46.6118C146.589 46.6118 145.278 47.9226 145.278 49.5396C145.278 51.1566 146.589 52.4674 148.206 52.4674Z" fill="#00BCB1"/>
<path d="M123.571 59.7999C125.188 59.7999 126.499 58.4891 126.499 56.8721C126.499 55.2551 125.188 53.9443 123.571 53.9443C121.954 53.9443 120.644 55.2551 120.644 56.8721C120.644 58.4891 121.954 59.7999 123.571 59.7999Z" fill="#00BCB1"/>
<path d="M146.063 73.7351C147.68 73.7351 148.99 72.4242 148.99 70.8072C148.99 69.1903 147.68 67.8794 146.063 67.8794C144.446 67.8794 143.135 69.1903 143.135 70.8072C143.135 72.4242 144.446 73.7351 146.063 73.7351Z" fill="#00BCB1"/>
<path d="M90.7579 135.707C92.3749 135.707 93.6857 134.396 93.6857 132.78C93.6857 131.163 92.3749 129.852 90.7579 129.852C89.1409 129.852 87.8301 131.163 87.8301 132.78C87.8301 134.396 89.1409 135.707 90.7579 135.707Z" fill="#00BCB1"/>
<path d="M74.2408 126.166C75.8578 126.166 77.1686 124.855 77.1686 123.238C77.1686 121.621 75.8578 120.31 74.2408 120.31C72.6238 120.31 71.313 121.621 71.313 123.238C71.313 124.855 72.6238 126.166 74.2408 126.166Z" fill="#00BCB1"/>
<path d="M64.7218 109.696C66.3388 109.696 67.6496 108.385 67.6496 106.768C67.6496 105.151 66.3388 103.84 64.7218 103.84C63.1048 103.84 61.7939 105.151 61.7939 106.768C61.7939 108.385 63.1048 109.696 64.7218 109.696Z" fill="#00BCB1"/>
<path d="M64.7232 90.639C66.3402 90.639 67.6511 89.3282 67.6511 87.7112C67.6511 86.0942 66.3402 84.7834 64.7232 84.7834C63.1062 84.7834 61.7954 86.0942 61.7954 87.7112C61.7954 89.3282 63.1062 90.639 64.7232 90.639Z" fill="#00BCB1"/>
<path d="M74.2545 74.1385C75.8715 74.1385 77.1823 72.8276 77.1823 71.2106C77.1823 69.5936 75.8715 68.2828 74.2545 68.2828C72.6375 68.2828 71.3267 69.5936 71.3267 71.2106C71.3267 72.8276 72.6375 74.1385 74.2545 74.1385Z" fill="#00BCB1"/>
<path d="M90.7618 64.6173C92.3788 64.6173 93.6896 63.3065 93.6896 61.6895C93.6896 60.0725 92.3788 58.7617 90.7618 58.7617C89.1448 58.7617 87.834 60.0725 87.834 61.6895C87.834 63.3065 89.1448 64.6173 90.7618 64.6173Z" fill="#00BCB1"/>
<path d="M135.812 109.734C137.429 109.734 138.739 108.423 138.739 106.806C138.739 105.189 137.429 103.878 135.812 103.878C134.195 103.878 132.884 105.189 132.884 106.806C132.884 108.423 134.195 109.734 135.812 109.734Z" fill="#00BCB1"/>
<path d="M126.264 126.226C127.881 126.226 129.192 124.916 129.192 123.299C129.192 121.682 127.881 120.371 126.264 120.371C124.647 120.371 123.336 121.682 123.336 123.299C123.336 124.916 124.647 126.226 126.264 126.226Z" fill="#00BCB1"/>
<path d="M109.749 135.733C111.366 135.733 112.676 134.423 112.676 132.806C112.676 131.189 111.366 129.878 109.749 129.878C108.132 129.878 106.821 131.189 106.821 132.806C106.821 134.423 108.132 135.733 109.749 135.733Z" fill="#00BCB1"/>
<path d="M92.8408 105.098C91.2007 107.166 89.4823 109.525 87.7626 112.19C83.1151 119.388 79.4138 127.332 76.7614 135.798C73.4542 146.356 71.7764 157.756 71.7764 169.686C71.7764 171.102 72.9251 172.251 74.3411 172.251C75.7571 172.251 76.9058 171.102 76.9058 169.686C76.9058 144.007 85.0791 125.873 91.935 115.182C93.7776 112.31 95.6268 109.804 97.3668 107.66C95.6484 107.183 94.1015 106.291 92.8408 105.098Z" fill="white"/>
</g>
<g filter="url(#filter0_d_1252_83)">
<mask id="path-30-outside-1_1252_83" maskUnits="userSpaceOnUse" x="112.645" y="6.83329" width="100.409" height="100.409" fill="black">
<rect fill="white" x="112.645" y="6.83329" width="100.409" height="100.409"/>
<path fill-rule="evenodd" clip-rule="evenodd" d="M179.25 78.9322C175.696 72.9437 165.486 69.9735 158.76 71.7758V71.7758C145.177 75.4155 131.539 68.5635 128.299 56.4716C125.058 44.3796 133.443 31.6266 147.027 27.987C156.116 25.5515 165.23 27.8137 171.237 33.2002C172.497 34.3305 174.623 33.7668 176.291 33.4759V33.4759C180.535 32.7356 185.935 43.3659 188.351 57.2194C190.768 71.0729 189.286 82.9035 185.041 83.6438C183.215 83.9624 181.174 82.1754 179.25 78.9322Z"/>
</mask>
<path fill-rule="evenodd" clip-rule="evenodd" d="M179.25 78.9322C175.696 72.9437 165.486 69.9735 158.76 71.7758V71.7758C145.177 75.4155 131.539 68.5635 128.299 56.4716C125.058 44.3796 133.443 31.6266 147.027 27.987C156.116 25.5515 165.23 27.8137 171.237 33.2002C172.497 34.3305 174.623 33.7668 176.291 33.4759V33.4759C180.535 32.7356 185.935 43.3659 188.351 57.2194C190.768 71.0729 189.286 82.9035 185.041 83.6438C183.215 83.9624 181.174 82.1754 179.25 78.9322Z" fill="url(#paint0_linear_1252_83)"/>
<path d="M128.299 56.4716L124.435 57.5069L124.435 57.5069L128.299 56.4716ZM147.027 27.987L148.062 31.8507L147.027 27.987ZM188.351 57.2194L192.292 56.5321L192.292 56.5321L188.351 57.2194ZM185.041 83.6438L185.728 87.5843L185.728 87.5843L185.041 83.6438ZM171.237 33.2002L173.907 30.2223L171.237 33.2002ZM157.725 67.9121C145.84 71.0965 134.721 64.9842 132.162 55.4363L124.435 57.5069C128.357 72.1429 144.513 79.7344 159.795 75.6395L157.725 67.9121ZM132.162 55.4363C129.604 45.8885 136.178 35.0351 148.062 31.8507L145.992 24.1233C130.709 28.2182 120.513 42.8708 124.435 57.5069L132.162 55.4363ZM148.062 31.8507C155.929 29.7428 163.628 31.7498 168.566 36.1782L173.907 30.2223C166.832 23.8776 156.304 21.3601 145.992 24.1233L148.062 31.8507ZM176.978 37.4164C176.167 37.558 176.059 37.036 176.838 37.7936C177.538 38.4736 178.45 39.7366 179.44 41.6865C181.398 45.5403 183.251 51.2592 184.411 57.9067L192.292 56.5321C191.035 49.3262 188.981 42.8031 186.573 38.0635C185.381 35.7167 183.996 33.595 182.414 32.0571C180.912 30.5969 178.537 29.0237 175.604 29.5354L176.978 37.4164ZM184.411 57.9067C185.57 64.5542 185.762 70.5629 185.225 74.8518C184.953 77.0219 184.522 78.5191 184.094 79.3958C183.617 80.3726 183.543 79.8448 184.354 79.7033L185.728 87.5843C188.662 87.0726 190.364 84.7884 191.283 82.9059C192.251 80.9232 192.836 78.4581 193.163 75.8462C193.824 70.5715 193.549 63.7381 192.292 56.5321L184.411 57.9067ZM184.354 79.7033C185.055 79.581 185.248 79.9699 184.737 79.5454C184.246 79.1384 183.53 78.3066 182.69 76.8909L175.81 80.9734C176.894 82.801 178.161 84.4843 179.628 85.7019C181.074 86.9021 183.201 88.0252 185.728 87.5843L184.354 79.7033ZM168.566 36.1782C170.341 37.7701 172.467 37.9201 173.771 37.8678C175.021 37.8177 176.427 37.5126 176.978 37.4164L175.604 29.5354C175.366 29.5768 175.121 29.623 174.914 29.6617C174.695 29.7025 174.501 29.7381 174.313 29.7697C173.929 29.8341 173.656 29.866 173.451 29.8742C172.96 29.8939 173.392 29.7606 173.907 30.2223L168.566 36.1782ZM159.795 75.6395C162.243 74.9838 165.666 75.1506 168.942 76.2311C172.254 77.3237 174.702 79.1069 175.81 80.9734L182.69 76.8909C180.244 72.769 175.81 70.0728 171.448 68.6338C167.049 67.1827 162.004 66.7655 157.725 67.9121L159.795 75.6395Z" fill="white" mask="url(#path-30-outside-1_1252_83)"/>
</g>
<path fill-rule="evenodd" clip-rule="evenodd" d="M128.636 44.7032C128.811 55.2526 138.003 64.786 150.618 66.7947C161.759 68.5688 172.186 63.934 176.841 55.9559C174.136 63.2748 167.532 69.4255 158.76 71.7758C145.177 75.4155 131.539 68.5636 128.299 56.4716C127.236 52.5049 127.424 48.4671 128.636 44.7032Z" fill="white"/>
<g filter="url(#filter1_d_1252_83)">
<circle cx="186.019" cy="86.5046" r="6.93336" transform="rotate(45 186.019 86.5046)" fill="url(#paint1_linear_1252_83)"/>
<circle cx="186.019" cy="86.5046" r="8.93336" transform="rotate(45 186.019 86.5046)" stroke="white" stroke-width="4" stroke-linejoin="round"/>
</g>
<g filter="url(#filter2_d_1252_83)">
<rect x="124.53" y="32.1724" width="56.5336" height="17.6001" rx="8.80004" transform="rotate(45 124.53 32.1724)" fill="url(#paint2_linear_1252_83)"/>
<rect x="124.53" y="29.344" width="60.5336" height="21.6001" rx="10.8" transform="rotate(45 124.53 29.344)" stroke="white" stroke-width="4" stroke-linejoin="round"/>
</g>
<rect x="38.1738" y="165.827" width="123.909" height="27.1731" rx="13.5866" fill="white"/>
<path d="M55.7586 175.186H57.3267V181.323C57.3239 181.885 57.2046 182.37 56.9688 182.776C56.733 183.179 56.4035 183.49 55.9802 183.709C55.5597 183.925 55.0696 184.033 54.51 184.033C53.9986 184.033 53.5384 183.942 53.1293 183.76C52.7231 183.576 52.4006 183.303 52.162 182.942C51.9233 182.581 51.804 182.132 51.804 181.596H53.3765C53.3793 181.831 53.4304 182.034 53.5299 182.205C53.6321 182.375 53.7728 182.506 53.9517 182.597C54.1307 182.688 54.3367 182.733 54.5696 182.733C54.8225 182.733 55.037 182.681 55.2131 182.576C55.3892 182.468 55.5228 182.309 55.6137 182.098C55.7074 181.888 55.7557 181.63 55.7586 181.323V175.186ZM59.0419 183.914V175.186H64.7181V176.512H60.6229V178.881H64.4241V180.206H60.6229V182.588H64.7522V183.914H59.0419ZM65.9475 176.512V175.186H72.9106V176.512H70.2131V183.914H68.6449V176.512H65.9475ZM74.091 183.914V182.929L78.5654 176.512H74.0654V175.186H80.5256V176.171L76.0554 182.588H80.5512V183.914H74.091ZM81.6975 176.512V175.186H88.6606V176.512H85.9631V183.914H84.3949V176.512H81.6975ZM98.4809 175.186H100.062V180.888C100.062 181.513 99.9141 182.063 99.6187 182.537C99.326 183.012 98.9141 183.382 98.3829 183.649C97.8516 183.914 97.2309 184.046 96.5206 184.046C95.8076 184.046 95.1854 183.914 94.6542 183.649C94.1229 183.382 93.711 183.012 93.4184 182.537C93.1258 182.063 92.9794 181.513 92.9794 180.888V175.186H94.5604V180.756C94.5604 181.12 94.64 181.444 94.7991 181.728C94.961 182.012 95.1883 182.235 95.4809 182.397C95.7735 182.556 96.1201 182.635 96.5206 182.635C96.9212 182.635 97.2678 182.556 97.5604 182.397C97.8559 182.235 98.0831 182.012 98.2422 181.728C98.4013 181.444 98.4809 181.12 98.4809 180.756V175.186ZM108.952 175.186V183.914H107.546L103.434 177.969H103.361V183.914H101.78V175.186H103.195L107.303 181.135H107.38V175.186H108.952ZM113.632 183.914H110.675V175.186H113.692C114.558 175.186 115.303 175.361 115.925 175.711C116.55 176.057 117.03 176.556 117.365 177.206C117.7 177.857 117.868 178.635 117.868 179.542C117.868 180.451 117.699 181.232 117.361 181.885C117.026 182.539 116.541 183.04 115.908 183.39C115.277 183.739 114.519 183.914 113.632 183.914ZM112.256 182.546H113.555C114.163 182.546 114.67 182.435 115.077 182.213C115.483 181.989 115.788 181.655 115.993 181.212C116.197 180.766 116.3 180.209 116.3 179.542C116.3 178.874 116.197 178.32 115.993 177.88C115.788 177.436 115.486 177.105 115.085 176.887C114.688 176.665 114.193 176.554 113.602 176.554H112.256V182.546ZM122.347 183.914V175.186H123.928V178.881H127.972V175.186H129.557V183.914H127.972V180.206H123.928V183.914H122.347ZM132.857 175.186V183.914H131.276V175.186H132.857ZM134.569 183.914V175.186H140.245V176.512H136.15V178.881H139.951V180.206H136.15V182.588H140.28V183.914H134.569ZM141.858 183.914V175.186H145.131C145.802 175.186 146.364 175.303 146.819 175.536C147.276 175.769 147.621 176.096 147.854 176.516C148.09 176.934 148.208 177.421 148.208 177.978C148.208 178.537 148.088 179.023 147.85 179.435C147.614 179.844 147.266 180.161 146.806 180.385C146.346 180.607 145.78 180.718 145.11 180.718H142.779V179.405H144.897C145.289 179.405 145.61 179.351 145.86 179.243C146.11 179.132 146.294 178.972 146.414 178.762C146.536 178.549 146.597 178.287 146.597 177.978C146.597 177.668 146.536 177.404 146.414 177.185C146.292 176.963 146.106 176.796 145.856 176.682C145.606 176.566 145.283 176.507 144.888 176.507H143.439V183.914H141.858ZM146.367 179.959L148.527 183.914H146.763L144.641 179.959H146.367Z" fill="#545572"/>
</g>
<defs>
<filter id="filter0_d_1252_83" x="113.592" y="18.0113" width="89.9189" height="84.6709" filterUnits="userSpaceOnUse" color-interpolation-filters="sRGB">
<feFlood flood-opacity="0" result="BackgroundImageFix"/>
<feColorMatrix in="SourceAlpha" type="matrix" values="0 0 0 0 0 0 0 0 0 0 0 0 0 0 0 0 0 0 127 0" result="hardAlpha"/>
<feOffset dy="5"/>
<feGaussianBlur stdDeviation="5"/>
<feColorMatrix type="matrix" values="0 0 0 0 0.0392157 0 0 0 0 0.0470588 0 0 0 0 0.207843 0 0 0 0.15 0"/>
<feBlend mode="normal" in2="BackgroundImageFix" result="effect1_dropShadow_1252_83"/>
<feBlend mode="normal" in="SourceGraphic" in2="effect1_dropShadow_1252_83" result="shape"/>
</filter>
<filter id="filter1_d_1252_83" x="165.085" y="70.5712" width="41.8672" height="41.8668" filterUnits="userSpaceOnUse" color-interpolation-filters="sRGB">
<feFlood flood-opacity="0" result="BackgroundImageFix"/>
<feColorMatrix in="SourceAlpha" type="matrix" values="0 0 0 0 0 0 0 0 0 0 0 0 0 0 0 0 0 0 127 0" result="hardAlpha"/>
<feOffset dy="5"/>
<feGaussianBlur stdDeviation="5"/>
<feColorMatrix type="matrix" values="0 0 0 0 0.0392157 0 0 0 0 0.0470588 0 0 0 0 0.207843 0 0 0 0.15 0"/>
<feBlend mode="normal" in2="BackgroundImageFix" result="effect1_dropShadow_1252_83"/>
<feBlend mode="normal" in="SourceGraphic" in2="effect1_dropShadow_1252_83" result="shape"/>
</filter>
<filter id="filter2_d_1252_83" x="101.73" y="26.8175" width="73.1299" height="73.1302" filterUnits="userSpaceOnUse" color-interpolation-filters="sRGB">
<feFlood flood-opacity="0" result="BackgroundImageFix"/>
<feColorMatrix in="SourceAlpha" type="matrix" values="0 0 0 0 0 0 0 0 0 0 0 0 0 0 0 0 0 0 127 0" result="hardAlpha"/>
<feOffset dy="5"/>
<feGaussianBlur stdDeviation="5"/>
<feColorMatrix type="matrix" values="0 0 0 0 0.0392157 0 0 0 0 0.0470588 0 0 0 0 0.207843 0 0 0 0.15 0"/>
<feBlend mode="normal" in2="BackgroundImageFix" result="effect1_dropShadow_1252_83"/>
<feBlend mode="normal" in="SourceGraphic" in2="effect1_dropShadow_1252_83" result="shape"/>
</filter>
<linearGradient id="paint0_linear_1252_83" x1="177.118" y1="39.035" x2="142.047" y2="74.1054" gradientUnits="userSpaceOnUse">
<stop stop-color="#FF434E"/>
<stop offset="1" stop-color="#D83943"/>
</linearGradient>
<linearGradient id="paint1_linear_1252_83" x1="186.019" y1="79.5712" x2="186.019" y2="93.438" gradientUnits="userSpaceOnUse">
<stop stop-color="white"/>
<stop offset="1" stop-color="#F2F2F2"/>
</linearGradient>
<linearGradient id="paint2_linear_1252_83" x1="152.797" y1="32.1724" x2="152.797" y2="49.7725" gradientUnits="userSpaceOnUse">
<stop stop-color="white"/>
<stop offset="1" stop-color="#F2F2F2"/>
</linearGradient>
<clipPath id="clip0_1252_83">
<rect width="200" height="200" fill="white"/>
</clipPath>
<clipPath id="clip1_1252_83">
<rect x="36" y="33.2224" width="128.257" height="128.257" rx="34.5703" fill="white"/>
</clipPath>
</defs>
</svg>
