<svg width="345" height="285" viewBox="0 0 345 285" fill="none" xmlns="http://www.w3.org/2000/svg">
<mask id="mask0_1253_147" style="mask-type:alpha" maskUnits="userSpaceOnUse" x="29" y="87" width="47" height="106">
<path fill-rule="evenodd" clip-rule="evenodd" d="M36.9637 192.019C34.6438 191.025 33.5686 188.339 34.5621 186.019L65.1416 114.613C68.0226 107.885 64.9045 100.096 58.177 97.2149C51.4495 94.3339 43.6603 97.4521 40.7793 104.18L38.4409 109.64C37.4474 111.96 34.7615 113.035 32.4417 112.042C30.1219 111.048 29.0466 108.362 30.0401 106.042L32.3785 100.582C37.2464 89.2149 50.4075 83.9462 61.7746 88.8141C73.1417 93.682 78.4103 106.843 73.5424 118.21L42.9629 189.617C41.9694 191.937 39.2835 193.012 36.9637 192.019Z" fill="black"/>
</mask>
<g mask="url(#mask0_1253_147)">
<rect x="44.4058" y="200.176" width="68.5404" height="123.373" transform="rotate(-156.817 44.4058 200.176)" fill="#EB424C"/>
<path d="M-15.9705 205.139L77.1301 167.869L72.1813 155.507L-20.9194 192.777L-15.9705 205.139Z" fill="white"/>
<path d="M-0.860601 169.856L92.24 132.586L87.2912 120.223L-5.80946 157.493L-0.860601 169.856Z" fill="white"/>
<path d="M107.35 97.3022L14.2493 134.572L9.30046 122.21L102.401 84.94L107.35 97.3022Z" fill="white"/>
<path d="M29.3592 99.2889L122.46 62.0189L117.511 49.6567L24.4104 86.9267L29.3592 99.2889Z" fill="white"/>
</g>
<g filter="url(#filter0_d_1253_147)">
<path d="M186.933 191.736C187.391 188.505 186.816 185.113 185.059 182.07C181.596 176.073 174.956 174.314 167.649 175.204L165.558 175.527L165.558 175.527L165.556 175.527C165.545 175.529 165.533 175.531 165.522 175.533L144.428 178.792C136.971 179.944 129.748 177.962 124.11 173.832L186.933 191.736ZM186.933 191.736L175.518 234.336C171.612 248.913 180.263 263.898 194.841 267.804M186.933 191.736L194.841 267.804M194.841 267.804C202.13 269.757 209.524 268.568 215.577 265.074C221.628 261.58 226.356 255.768 228.309 248.481L224.928 247.575L228.309 248.481L236.2 219.033C238.152 213.17 242.168 207.979 247.938 204.647C253.926 201.19 260.704 200.37 266.95 201.824C267.133 201.867 267.318 201.894 267.502 201.907L295.794 209.488C303.083 211.441 310.477 210.252 316.53 206.758C322.581 203.264 327.309 197.452 329.262 190.165C333.168 175.587 324.517 160.603 309.939 156.697C309.939 156.697 309.939 156.697 309.939 156.697L268.254 145.527C268.077 145.418 267.889 145.324 267.692 145.247C264.607 144.039 261.901 141.825 260.117 138.734C257.377 133.988 257.94 128.631 260.82 123.702L265.223 118.222C265.339 118.098 265.445 117.966 265.54 117.829L278.971 101.113C283.698 95.2309 285.593 87.9846 284.836 81.0372C284.08 74.0906 280.668 67.4196 274.787 62.6942C263.023 53.2412 245.822 55.1145 236.369 66.8792L222.864 83.6858C223.067 75.6154 221.122 67.3869 216.79 59.8823C204.251 38.1644 176.481 30.7234 154.763 43.2622C133.045 55.8009 125.604 83.5712 138.143 105.289C142.273 112.443 148.058 118.047 154.733 121.898L136.082 124.779C121.167 127.084 110.944 141.044 113.249 155.958L113.249 155.958C114.401 163.414 118.472 169.704 124.109 173.832L194.841 267.804Z" fill="url(#paint0_linear_1253_147)" stroke="white" stroke-width="7" stroke-linejoin="round"/>
<path d="M286.923 202.67C285.129 203.39 284.259 205.428 284.979 207.222C285.699 209.016 287.737 209.886 289.531 209.166L286.923 202.67ZM288.636 195.726L291.512 193.73L291.512 193.73L288.636 195.726ZM291.378 184.849L293.159 187.862L293.159 187.862L291.378 184.849ZM292.984 183.832L290.892 181.026L290.892 181.026L292.984 183.832ZM293.818 183.237L291.814 180.367L291.814 180.367L293.818 183.237ZM294.767 172.846L297.651 170.864L297.651 170.864L294.767 172.846ZM297.4 161.5L299.213 164.494L299.213 164.494L297.4 161.5ZM297.887 161.204L296.046 158.227L296.046 158.227L297.887 161.204ZM298.929 160.599L300.645 163.65L300.645 163.65L298.929 160.599ZM306.415 157.451C306.9 155.58 305.777 153.669 303.906 153.184C302.035 152.698 300.125 153.821 299.639 155.692L306.415 157.451ZM289.531 209.166C291.358 208.433 293.483 206.663 294.198 203.704C294.921 200.717 294.016 197.338 291.512 193.73L285.761 197.721C287.612 200.388 287.478 201.713 287.395 202.059C287.304 202.431 287.047 202.62 286.923 202.67L289.531 209.166ZM291.512 193.73C289.632 191.022 290.211 190.193 290.246 190.126C290.364 189.898 290.622 189.575 291.162 189.153C291.711 188.724 292.356 188.337 293.159 187.862L289.598 181.836C288.271 182.62 285.452 184.172 284.036 186.896C282.333 190.17 283.085 193.866 285.761 197.721L291.512 193.73ZM293.159 187.862C293.713 187.535 294.451 187.104 295.076 186.638L290.892 181.026C290.63 181.222 290.249 181.451 289.598 181.836L293.159 187.862ZM295.076 186.638C295.293 186.476 295.529 186.311 295.821 186.107L291.814 180.367C291.538 180.56 291.211 180.788 290.892 181.026L295.076 186.638ZM295.821 186.107C296.897 185.356 299.414 183.755 300.307 180.856C301.266 177.741 300.096 174.421 297.651 170.864L291.882 174.829C292.883 176.285 293.338 177.295 293.525 177.95C293.699 178.56 293.621 178.78 293.617 178.796C293.555 178.995 293.34 179.302 291.814 180.367L295.821 186.107ZM297.651 170.864C295.71 168.04 296.251 167.035 296.358 166.824C296.72 166.11 297.603 165.469 299.213 164.494L295.587 158.506C294.338 159.263 291.538 160.852 290.115 163.657C288.438 166.965 289.091 170.767 291.882 174.829L297.651 170.864ZM299.213 164.494C299.379 164.394 299.556 164.286 299.728 164.18L296.046 158.227C295.907 158.313 295.759 158.402 295.587 158.506L299.213 164.494ZM299.728 164.18C299.978 164.025 300.266 163.863 300.645 163.65L297.214 157.548C296.863 157.746 296.443 157.981 296.046 158.227L299.728 164.18ZM300.645 163.65C301.423 163.212 302.62 162.552 303.671 161.659C304.774 160.723 305.916 159.372 306.415 157.451L299.639 155.692C299.614 155.789 299.54 155.984 299.14 156.323C298.69 156.706 298.1 157.05 297.214 157.548L300.645 163.65Z" fill="white"/>
<path d="M237.594 74.1607C237.625 72.2279 236.083 70.6364 234.15 70.6059C232.217 70.5754 230.626 72.1175 230.595 74.0503L237.594 74.1607ZM243.334 78.4284L244.061 81.8521L244.061 81.8521L243.334 78.4284ZM252.301 85.1669L248.834 85.6426L248.834 85.6426L252.301 85.1669ZM252.618 87.0414L256.015 86.1985L256.015 86.1985L252.618 87.0414ZM252.844 88.0399L256.265 87.3032L256.265 87.3032L252.844 88.0399ZM262.057 92.9375L262.768 96.3644L262.768 96.3644L262.057 92.9375ZM271.499 99.7575L268.037 100.27L268.037 100.27L271.499 99.7575ZM271.584 100.321L275.042 99.7755L275.042 99.7755L271.584 100.321ZM271.738 101.516L275.215 101.115L275.215 101.115L271.738 101.516ZM271.744 109.637C273.282 110.809 275.478 110.513 276.65 108.976C277.822 107.439 277.525 105.242 275.988 104.07L271.744 109.637ZM230.595 74.0503C230.564 76.0188 231.374 78.6633 233.825 80.4685C236.299 82.2905 239.765 82.7645 244.061 81.8521L242.607 75.0048C239.432 75.679 238.262 75.0426 237.976 74.8319C237.667 74.6045 237.592 74.2942 237.594 74.1607L230.595 74.0503ZM244.061 81.8521C247.286 81.1673 247.826 82.0218 247.874 82.0802C248.039 82.2776 248.237 82.6404 248.417 83.3015C248.6 83.9741 248.707 84.7178 248.834 85.6426L255.769 84.6912C255.559 83.1648 255.219 79.9647 253.257 77.6044C250.897 74.7673 247.198 74.0298 242.607 75.0048L244.061 81.8521ZM248.834 85.6426C248.921 86.2793 249.033 87.1275 249.221 87.8843L256.015 86.1985C255.936 85.8807 255.872 85.4407 255.769 84.6912L248.834 85.6426ZM249.221 87.8843C249.286 88.1467 249.347 88.4277 249.422 88.7767L256.265 87.3032C256.195 86.9743 256.111 86.585 256.015 86.1985L249.221 87.8843ZM249.422 88.7767C249.698 90.0588 250.2 93 252.528 94.9451C255.028 97.0349 258.542 97.2415 262.768 96.3644L261.346 89.5105C259.615 89.8696 258.508 89.8977 257.832 89.8169C257.202 89.7415 257.029 89.5843 257.017 89.5739C256.857 89.4404 256.657 89.1225 256.265 87.3032L249.422 88.7767ZM262.768 96.3644C266.124 95.6681 266.841 96.5552 266.994 96.7358C267.512 97.346 267.761 98.4078 268.037 100.27L274.962 99.2447C274.748 97.8 274.366 94.6029 272.33 92.2054C269.93 89.3784 266.171 88.5091 261.346 89.5105L262.768 96.3644ZM268.037 100.27C268.065 100.462 268.096 100.667 268.127 100.866L275.042 99.7755C275.016 99.6147 274.991 99.4431 274.962 99.2447L268.037 100.27ZM268.127 100.866C268.173 101.157 268.211 101.485 268.261 101.917L275.215 101.115C275.169 100.715 275.115 100.237 275.042 99.7755L268.127 100.866ZM268.261 101.917C268.364 102.804 268.509 104.163 268.926 105.479C269.362 106.857 270.165 108.434 271.744 109.637L275.988 104.07C275.909 104.01 275.757 103.866 275.599 103.366C275.421 102.802 275.332 102.125 275.215 101.115L268.261 101.917Z" fill="white"/>
<path d="M142.108 129.289C140.419 128.349 139.812 126.218 140.752 124.529C141.692 122.84 143.823 122.233 145.512 123.173L142.108 129.289ZM142.934 136.394L145.536 138.735L145.536 138.735L142.934 136.394ZM144.286 147.529L146.432 144.764L146.432 144.764L144.286 147.529ZM145.751 148.74L143.323 151.261L143.323 151.261L145.751 148.74ZM146.503 149.435L144.154 152.03L144.154 152.03L146.503 149.435ZM146.138 159.863L148.75 162.192L148.75 162.192L146.138 159.863ZM147.323 171.45L149.498 168.708L149.498 168.708L147.323 171.45ZM147.768 171.805L145.568 174.527L145.568 174.527L147.768 171.805ZM148.727 172.536L146.641 175.347L146.641 175.347L148.727 172.536ZM155.757 176.601C156.003 178.519 154.649 180.273 152.732 180.519C150.814 180.766 149.06 179.411 148.814 177.494L155.757 176.601ZM145.512 123.173C147.232 124.13 149.118 126.153 149.455 129.179C149.796 132.232 148.474 135.471 145.536 138.735L140.333 134.052C142.504 131.64 142.538 130.308 142.499 129.955C142.456 129.574 142.225 129.354 142.108 129.289L145.512 123.173ZM145.536 138.735C143.33 141.185 143.8 142.081 143.827 142.152C143.915 142.393 144.131 142.745 144.613 143.232C145.104 143.727 145.695 144.192 146.432 144.764L142.141 150.294C140.923 149.349 138.322 147.455 137.259 144.575C135.982 141.113 137.193 137.541 140.333 134.052L145.536 138.735ZM146.432 144.764C146.94 145.158 147.618 145.679 148.18 146.22L143.323 151.261C143.087 151.034 142.738 150.758 142.141 150.294L146.432 144.764ZM148.18 146.22C148.374 146.408 148.587 146.601 148.852 146.84L144.154 152.03C143.905 151.804 143.61 151.537 143.323 151.261L148.18 146.22ZM148.852 146.84C149.824 147.721 152.121 149.626 152.641 152.614C153.201 155.824 151.623 158.971 148.75 162.192L143.526 157.533C144.702 156.214 145.28 155.27 145.548 154.644C145.797 154.061 145.748 153.832 145.745 153.816C145.709 153.611 145.534 153.279 144.154 152.03L148.852 146.84ZM148.75 162.192C146.469 164.75 146.879 165.815 146.959 166.038C147.228 166.791 148.023 167.538 149.498 168.708L145.148 174.192C144.004 173.284 141.426 171.355 140.367 168.394C139.119 164.902 140.246 161.212 143.526 157.533L148.75 162.192ZM149.498 168.708C149.65 168.828 149.812 168.957 149.969 169.084L145.568 174.527C145.441 174.425 145.305 174.317 145.148 174.192L149.498 168.708ZM149.969 169.084C150.199 169.27 150.463 169.466 150.812 169.726L146.641 175.347C146.318 175.107 145.931 174.821 145.568 174.527L149.969 169.084ZM150.812 169.726C151.529 170.258 152.634 171.063 153.564 172.082C154.54 173.149 155.503 174.632 155.757 176.601L148.814 177.494C148.801 177.395 148.752 177.192 148.398 176.805C147.999 176.369 147.457 175.953 146.641 175.347L150.812 169.726Z" fill="white"/>
<path d="M182.724 225.356C182.003 223.562 179.966 222.692 178.172 223.412C176.378 224.132 175.507 226.17 176.227 227.964L182.724 225.356ZM189.668 227.069L191.664 229.945L191.664 229.945L189.668 227.069ZM200.544 229.812L197.531 231.592L197.531 231.592L200.544 229.812ZM201.562 231.417L204.368 229.325L204.368 229.325L201.562 231.417ZM202.157 232.251L205.026 230.247L205.026 230.247L202.157 232.251ZM212.547 233.2L214.53 236.084L214.53 236.084L212.547 233.2ZM223.893 235.833L220.9 237.646L220.9 237.646L223.893 235.833ZM224.19 236.32L227.167 234.479L227.167 234.479L224.19 236.32ZM224.795 237.362L227.845 235.647L227.845 235.647L224.795 237.362ZM227.943 244.848C229.814 245.333 231.725 244.21 232.21 242.339C232.696 240.468 231.573 238.558 229.702 238.072L227.943 244.848ZM176.227 227.964C176.961 229.791 178.731 231.916 181.69 232.631C184.676 233.354 188.055 232.449 191.664 229.945L187.672 224.194C185.006 226.045 183.68 225.911 183.335 225.828C182.962 225.737 182.773 225.48 182.724 225.356L176.227 227.964ZM191.664 229.945C194.371 228.065 195.2 228.644 195.268 228.679C195.496 228.798 195.818 229.055 196.24 229.595C196.67 230.144 197.056 230.789 197.531 231.592L203.557 228.031C202.773 226.704 201.221 223.885 198.498 222.469C195.224 220.766 191.528 221.518 187.672 224.194L191.664 229.945ZM197.531 231.592C197.858 232.146 198.29 232.884 198.756 233.509L204.368 229.325C204.172 229.063 203.942 228.682 203.557 228.031L197.531 231.592ZM198.756 233.509C198.918 233.726 199.083 233.962 199.287 234.254L205.026 230.247C204.834 229.971 204.606 229.644 204.368 229.325L198.756 233.509ZM199.287 234.254C200.038 235.33 201.639 237.847 204.538 238.74C207.653 239.699 210.972 238.529 214.53 236.084L210.565 230.315C209.108 231.316 208.099 231.771 207.444 231.958C206.834 232.132 206.613 232.054 206.598 232.05C206.399 231.988 206.092 231.773 205.026 230.247L199.287 234.254ZM214.53 236.084C217.354 234.144 218.359 234.684 218.57 234.791C219.284 235.153 219.924 236.036 220.9 237.646L226.887 234.02C226.131 232.771 224.541 229.971 221.736 228.548C218.429 226.871 214.626 227.524 210.565 230.315L214.53 236.084ZM220.9 237.646C221 237.812 221.107 237.989 221.213 238.161L227.167 234.479C227.081 234.34 226.991 234.192 226.887 234.02L220.9 237.646ZM221.213 238.161C221.368 238.412 221.531 238.699 221.744 239.078L227.845 235.647C227.648 235.296 227.413 234.876 227.167 234.479L221.213 238.161ZM221.744 239.078C222.181 239.856 222.842 241.053 223.735 242.104C224.671 243.207 226.022 244.349 227.943 244.848L229.702 238.072C229.605 238.047 229.41 237.973 229.07 237.573C228.688 237.123 228.343 236.533 227.845 235.647L221.744 239.078Z" fill="white"/>
<circle cx="227.516" cy="163.902" r="8.40941" transform="rotate(-30 227.516 163.902)" fill="white"/>
<circle cx="213.92" cy="140.354" r="8.40941" transform="rotate(-30 213.92 140.354)" fill="white"/>
<circle cx="191.355" cy="69.874" r="8.40941" transform="rotate(-30 191.355 69.874)" fill="white"/>
<circle cx="160.767" cy="87.5341" r="8.40941" transform="rotate(-30 160.767 87.5341)" fill="white"/>
<path d="M175.291 101.153C176.663 102.207 178.23 102.979 179.901 103.427C181.572 103.875 183.315 103.989 185.031 103.763C186.746 103.537 188.4 102.976 189.898 102.111C191.397 101.246 192.71 100.094 193.763 98.7214C194.816 97.3488 195.589 95.7822 196.037 94.111C196.485 92.4398 196.599 90.6968 196.373 88.9815" stroke="white" stroke-width="4" stroke-linecap="round" stroke-linejoin="round"/>
<path d="M159.277 73.1807C158.614 72.6728 157.857 72.3006 157.05 72.0852C156.242 71.8698 155.4 71.8154 154.571 71.9253C153.741 72.0351 152.942 72.307 152.217 72.7253C151.492 73.1437 150.857 73.7004 150.347 74.3636C149.838 75.0268 149.464 75.7835 149.246 76.5906C149.029 77.3976 148.973 78.2392 149.081 79.0673" stroke="white" stroke-width="4" stroke-linecap="round" stroke-linejoin="round"/>
<path d="M189.865 55.5206C189.202 55.0127 188.445 54.6405 187.637 54.4251C186.83 54.2097 185.987 54.1553 185.158 54.2652C184.329 54.375 183.529 54.6469 182.804 55.0653C182.08 55.4836 181.445 56.0403 180.935 56.7035C180.425 57.3667 180.051 58.1234 179.834 58.9305C179.616 59.7375 179.56 60.5791 179.669 61.4072" stroke="white" stroke-width="4" stroke-linecap="round" stroke-linejoin="round"/>
<path d="M199.386 127.92C198.934 129.604 197.203 130.604 195.519 130.153L188.863 128.369C187.178 127.918 186.179 126.186 186.63 124.502L188.414 117.846C188.865 116.162 190.596 115.162 192.281 115.614L198.936 117.397C200.621 117.848 201.62 119.58 201.169 121.264L199.386 127.92Z" stroke="white" stroke-width="2" stroke-linecap="round" stroke-linejoin="round"/>
<path d="M214.194 119.371C213.743 121.055 212.012 122.055 210.327 121.603L203.671 119.82C201.987 119.369 200.988 117.637 201.439 115.953L203.222 109.297C203.674 107.613 205.405 106.613 207.089 107.064L213.745 108.848C215.429 109.299 216.429 111.03 215.978 112.715L214.194 119.371Z" fill="white"/>
</g>
<mask id="mask1_1253_147" style="mask-type:alpha" maskUnits="userSpaceOnUse" x="227" y="24" width="90" height="78">
<path fill-rule="evenodd" clip-rule="evenodd" d="M229.595 25.8225C231.58 24.2646 234.452 24.6112 236.01 26.5965L283.963 87.7079C288.481 93.4654 296.81 94.4704 302.568 89.9526C308.325 85.4349 309.33 77.1051 304.813 71.3476L301.146 66.6744C299.588 64.689 299.934 61.8167 301.92 60.2589C303.905 58.701 306.777 59.0476 308.335 61.0329L312.002 65.7061C319.636 75.4343 317.937 89.5087 308.209 97.1422C298.481 104.776 284.407 103.078 276.773 93.3493L228.821 32.238C227.263 30.2526 227.609 27.3803 229.595 25.8225Z" fill="black"/>
</mask>
<g mask="url(#mask1_1253_147)">
<rect x="218.866" y="28.4333" width="68.5404" height="123.373" transform="rotate(-38.1203 218.866 28.4333)" fill="#EB424C"/>
<path d="M243.504 -26.9102L231.491 72.6513L244.711 74.2463L256.724 -25.3151L243.504 -26.9102Z" fill="white"/>
<path d="M267.198 3.28603L255.185 102.847L268.406 104.443L280.418 4.88105L267.198 3.28603Z" fill="white"/>
<path d="M278.88 133.044L290.892 33.4822L304.112 35.0773L292.1 134.639L278.88 133.044Z" fill="white"/>
<path d="M314.586 63.6785L302.574 163.24L315.794 164.835L327.806 65.2735L314.586 63.6785Z" fill="white"/>
</g>
<defs>
<filter id="filter0_d_1253_147" x="101.424" y="29.6706" width="240.277" height="254.571" filterUnits="userSpaceOnUse" color-interpolation-filters="sRGB">
<feFlood flood-opacity="0" result="BackgroundImageFix"/>
<feColorMatrix in="SourceAlpha" type="matrix" values="0 0 0 0 0 0 0 0 0 0 0 0 0 0 0 0 0 0 127 0" result="hardAlpha"/>
<feOffset dy="4"/>
<feGaussianBlur stdDeviation="4"/>
<feComposite in2="hardAlpha" operator="out"/>
<feColorMatrix type="matrix" values="0 0 0 0 0.0392157 0 0 0 0 0.0470588 0 0 0 0 0.207843 0 0 0 0.2 0"/>
<feBlend mode="normal" in2="BackgroundImageFix" result="effect1_dropShadow_1253_147"/>
<feBlend mode="normal" in="SourceGraphic" in2="effect1_dropShadow_1253_147" result="shape"/>
</filter>
<linearGradient id="paint0_linear_1253_147" x1="157.347" y1="45.8113" x2="265.098" y2="232.441" gradientUnits="userSpaceOnUse">
<stop stop-color="#D07333"/>
<stop offset="1" stop-color="#EAB856"/>
</linearGradient>
</defs>
</svg>
